M48
; DRILL file {KiCad 9.0.7} date 2026-05-30T18:00:38+0300
; FORMAT={-:-/ absolute / metric / decimal}
; #@! TF.CreationDate,2026-05-30T18:00:38+03:00
; #@! TF.GenerationSoftware,Kicad,Pcbnew,9.0.7
; #@! TF.FileFunction,Plated,1,2,PTH
FMAT,2
METRIC
; #@! TA.AperFunction,Plated,PTH,ViaDrill
T1C0.300
; #@! TA.AperFunction,Plated,PTH,ComponentDrill
T2C0.700
; #@! TA.AperFunction,Plated,PTH,ComponentDrill
T3C0.800
; #@! TA.AperFunction,Plated,PTH,ComponentDrill
T4C0.900
; #@! TA.AperFunction,Plated,PTH,ComponentDrill
T5C1.000
; #@! TA.AperFunction,Plated,PTH,ComponentDrill
T6C1.100
; #@! TA.AperFunction,Plated,PTH,ComponentDrill
T7C1.500
%
G90
G05
T1
X113.665Y-85.725
X113.665Y-89.535
X114.935Y-85.725
X114.935Y-89.535
X160.655Y-84.455
X167.64Y-84.455
T2
X96.52Y-102.87
X96.52Y-110.49
X101.6Y-102.87
X101.6Y-110.49
X113.03Y-102.87
X113.03Y-110.49
X118.11Y-102.87
X118.11Y-110.49
X129.54Y-102.87
X129.54Y-110.49
X134.62Y-102.87
X134.62Y-110.49
X144.78Y-72.39
X144.78Y-80.01
X146.05Y-102.87
X146.05Y-110.49
X147.32Y-72.39
X147.32Y-80.01
X149.86Y-72.39
X149.86Y-80.01
X151.13Y-102.87
X151.13Y-110.49
X162.56Y-102.87
X162.56Y-110.49
X167.64Y-102.87
X167.64Y-110.49
X179.07Y-102.87
X179.07Y-110.49
X184.15Y-102.87
X184.15Y-110.49
X186.69Y-92.71
X186.69Y-100.33
X191.77Y-92.71
X191.77Y-100.33
X195.58Y-102.87
X195.58Y-110.49
X200.66Y-102.87
X200.66Y-110.49
X203.2Y-92.71
X203.2Y-100.33
X208.28Y-92.71
X208.28Y-100.33
X212.09Y-102.87
X212.09Y-110.49
X217.17Y-102.87
X217.17Y-110.49
T3
X87.63Y-72.39
X87.63Y-87.63
X88.9Y-102.87
X88.9Y-105.41
X88.9Y-107.95
X90.17Y-72.39
X90.17Y-87.63
X92.71Y-72.39
X92.71Y-87.63
X95.25Y-72.39
X95.25Y-87.63
X97.79Y-72.39
X97.79Y-87.63
X99.06Y-102.87
X99.06Y-110.49
X100.33Y-72.39
X100.33Y-87.63
X102.87Y-72.39
X102.87Y-87.63
X105.41Y-72.39
X105.41Y-87.63
X105.41Y-102.87
X105.41Y-105.41
X105.41Y-107.95
X107.95Y-72.39
X107.95Y-87.63
X108.16Y-74.93
X108.16Y-77.47
X108.16Y-80.01
X108.16Y-82.55
X108.16Y-85.09
X115.57Y-102.87
X115.57Y-110.49
X121.92Y-102.87
X121.92Y-105.41
X121.92Y-107.95
X132.08Y-66.08
X132.08Y-71.08
X132.08Y-102.87
X132.08Y-110.49
X137.16Y-66.04
X137.16Y-71.04
X138.43Y-102.87
X138.43Y-105.41
X138.43Y-107.95
X142.24Y-60.96
X142.24Y-63.5
X142.24Y-66.04
X142.24Y-68.58
X142.24Y-72.39
X142.24Y-80.01
X148.59Y-102.87
X148.59Y-110.49
X149.86Y-60.96
X149.86Y-63.5
X149.86Y-66.04
X149.86Y-68.58
X154.94Y-102.87
X154.94Y-105.41
X154.94Y-107.95
X165.1Y-102.87
X165.1Y-110.49
X171.45Y-102.87
X171.45Y-105.41
X171.45Y-107.95
X181.61Y-102.87
X181.61Y-110.49
X187.96Y-102.87
X187.96Y-105.41
X187.96Y-107.95
X189.23Y-92.71
X189.23Y-100.33
X198.12Y-102.87
X198.12Y-110.49
X199.39Y-95.25
X199.39Y-97.79
X199.39Y-100.33
X204.47Y-102.87
X204.47Y-105.41
X204.47Y-107.95
X205.74Y-92.71
X205.74Y-100.33
X214.63Y-102.87
X214.63Y-110.49
X215.9Y-95.25
X215.9Y-97.79
X215.9Y-100.33
T4
X91.44Y-109.22
X93.98Y-109.22
X107.95Y-109.22
X110.49Y-109.22
X124.46Y-109.22
X127.0Y-109.22
X140.97Y-109.22
X143.51Y-109.22
X157.48Y-109.22
X160.02Y-109.22
X173.99Y-109.22
X176.53Y-109.22
X190.5Y-109.22
X193.04Y-109.22
X194.31Y-93.98
X196.85Y-93.98
X207.01Y-109.22
X209.55Y-109.22
X210.82Y-93.98
X213.36Y-93.98
T5
X88.9Y-113.03
X88.9Y-118.11
X93.98Y-113.03
X93.98Y-118.11
X96.52Y-113.03
X96.52Y-118.11
X99.06Y-113.03
X99.06Y-118.11
X105.41Y-113.03
X105.41Y-118.11
X110.49Y-113.03
X110.49Y-118.11
X113.03Y-113.03
X113.03Y-118.11
X115.57Y-113.03
X115.57Y-118.11
X121.92Y-113.03
X121.92Y-118.11
X127.0Y-113.03
X127.0Y-118.11
X129.54Y-113.03
X129.54Y-118.11
X132.08Y-113.03
X132.08Y-118.11
X138.43Y-113.03
X138.43Y-118.11
X143.51Y-113.03
X143.51Y-118.11
X146.05Y-113.03
X146.05Y-118.11
X148.59Y-113.03
X148.59Y-118.11
X154.94Y-113.03
X154.94Y-118.11
X160.02Y-113.03
X160.02Y-118.11
X162.56Y-113.03
X162.56Y-118.11
X165.1Y-113.03
X165.1Y-118.11
X171.45Y-113.03
X171.45Y-118.11
X176.53Y-113.03
X176.53Y-118.11
X179.07Y-113.03
X179.07Y-118.11
X181.61Y-113.03
X181.61Y-118.11
X187.96Y-113.03
X187.96Y-118.11
X189.23Y-85.09
X189.23Y-90.17
X191.77Y-85.09
X191.77Y-90.17
X193.04Y-113.03
X193.04Y-118.11
X194.31Y-85.09
X194.31Y-90.17
X195.58Y-113.03
X195.58Y-118.11
X198.12Y-113.03
X198.12Y-118.11
X199.39Y-85.09
X199.39Y-90.17
X204.47Y-113.03
X204.47Y-118.11
X205.74Y-85.09
X205.74Y-90.17
X208.28Y-85.09
X208.28Y-90.17
X209.55Y-113.03
X209.55Y-118.11
X210.82Y-85.09
X210.82Y-90.17
X212.09Y-113.03
X212.09Y-118.11
X214.63Y-113.03
X214.63Y-118.11
X215.9Y-85.09
X215.9Y-90.17
T6
X132.08Y-60.96
X134.62Y-60.96
X137.16Y-60.96
T7
X87.93Y-125.02
X87.93Y-131.37
X87.93Y-137.72
X88.63Y-128.27
X88.63Y-134.62
X88.63Y-140.97
X100.33Y-128.27
X100.33Y-134.62
X100.33Y-140.97
X101.03Y-125.02
X101.03Y-131.37
X101.03Y-137.72
X104.44Y-125.02
X104.44Y-131.37
X104.44Y-137.72
X105.14Y-128.27
X105.14Y-134.62
X105.14Y-140.97
X116.84Y-128.27
X116.84Y-134.62
X116.84Y-140.97
X117.54Y-125.02
X117.54Y-131.37
X117.54Y-137.72
X120.95Y-125.02
X120.95Y-131.37
X120.95Y-137.72
X121.65Y-128.27
X121.65Y-134.62
X121.65Y-140.97
X133.35Y-128.27
X133.35Y-134.62
X133.35Y-140.97
X134.05Y-125.02
X134.05Y-131.37
X134.05Y-137.72
X137.46Y-125.02
X137.46Y-131.37
X137.46Y-137.72
X138.16Y-128.27
X138.16Y-134.62
X138.16Y-140.97
X149.86Y-128.27
X149.86Y-134.62
X149.86Y-140.97
X150.56Y-125.02
X150.56Y-131.37
X150.56Y-137.72
X153.97Y-125.02
X153.97Y-131.37
X153.97Y-137.72
X154.24Y-65.48
X154.24Y-71.83
X154.24Y-78.18
X154.67Y-128.27
X154.67Y-134.62
X154.67Y-140.97
X154.94Y-62.23
X154.94Y-68.58
X154.94Y-74.93
X166.37Y-128.27
X166.37Y-134.62
X166.37Y-140.97
X166.64Y-62.23
X166.64Y-68.58
X166.64Y-74.93
X167.07Y-125.02
X167.07Y-131.37
X167.07Y-137.72
X167.34Y-65.48
X167.34Y-71.83
X167.34Y-78.18
X170.48Y-125.02
X170.48Y-131.37
X170.48Y-137.72
X170.75Y-65.48
X170.75Y-71.83
X170.75Y-78.18
X171.18Y-128.27
X171.18Y-134.62
X171.18Y-140.97
X171.45Y-62.23
X171.45Y-68.58
X171.45Y-74.93
X182.88Y-128.27
X182.88Y-134.62
X182.88Y-140.97
X183.15Y-62.23
X183.15Y-68.58
X183.15Y-74.93
X183.58Y-125.02
X183.58Y-131.37
X183.58Y-137.72
X183.85Y-65.48
X183.85Y-71.83
X183.85Y-78.18
X186.99Y-125.02
X186.99Y-131.37
X186.99Y-137.72
X187.26Y-65.48
X187.26Y-71.83
X187.26Y-78.18
X187.69Y-128.27
X187.69Y-134.62
X187.69Y-140.97
X187.96Y-62.23
X187.96Y-68.58
X187.96Y-74.93
X199.39Y-128.27
X199.39Y-134.62
X199.39Y-140.97
X199.66Y-62.23
X199.66Y-68.58
X199.66Y-74.93
X200.09Y-125.02
X200.09Y-131.37
X200.09Y-137.72
X200.36Y-65.48
X200.36Y-71.83
X200.36Y-78.18
X203.5Y-125.02
X203.5Y-131.37
X203.5Y-137.72
X203.77Y-65.48
X203.77Y-71.83
X203.77Y-78.18
X204.2Y-128.27
X204.2Y-134.62
X204.2Y-140.97
X204.47Y-62.23
X204.47Y-68.58
X204.47Y-74.93
X215.9Y-128.27
X215.9Y-134.62
X215.9Y-140.97
X216.17Y-62.23
X216.17Y-68.58
X216.17Y-74.93
X216.6Y-125.02
X216.6Y-131.37
X216.6Y-137.72
X216.87Y-65.48
X216.87Y-71.83
X216.87Y-78.18
T5
G00X115.95Y-68.04
M15
G01X115.95Y-70.04
M16
G05
G00X121.65Y-66.04
M15
G01X119.65Y-66.04
M16
G05
G00X121.65Y-72.04
M15
G01X119.65Y-72.04
M16
G05
M30
