M48
; DRILL file {KiCad 9.0.7} date 2026-06-16T16:49:24+0300
; FORMAT={-:-/ absolute / metric / decimal}
; #@! TF.CreationDate,2026-06-16T16:49:24+03:00
; #@! TF.GenerationSoftware,Kicad,Pcbnew,9.0.7
; #@! TF.FileFunction,Plated,1,2,PTH
FMAT,2
METRIC
; #@! TA.AperFunction,Plated,PTH,ViaDrill
T1C0.300
; #@! TA.AperFunction,Plated,PTH,ComponentDrill
T2C0.700
; #@! TA.AperFunction,Plated,PTH,ComponentDrill
T3C0.800
; #@! TA.AperFunction,Plated,PTH,ComponentDrill
T4C0.900
; #@! TA.AperFunction,Plated,PTH,ComponentDrill
T5C1.000
; #@! TA.AperFunction,Plated,PTH,ComponentDrill
T6C1.100
%
G90
G05
T1
X100.33Y-109.855
X118.11Y-89.535
X118.11Y-109.855
X120.65Y-81.915
X123.507Y-99.377
X125.095Y-86.995
X135.89Y-109.855
X137.16Y-87.63
X142.598Y-94.615
X153.67Y-109.855
X166.37Y-93.345
X171.45Y-109.855
X184.15Y-93.345
X189.23Y-109.855
X192.405Y-103.505
X194.945Y-103.505
T2
X90.17Y-102.235
X90.17Y-109.855
X95.25Y-102.235
X95.25Y-109.855
X107.95Y-102.235
X107.95Y-109.855
X113.03Y-102.235
X113.03Y-109.855
X118.115Y-85.725
X118.115Y-93.345
X125.73Y-102.235
X125.73Y-109.855
X130.81Y-102.235
X130.81Y-109.855
X130.815Y-85.725
X130.815Y-93.345
X133.355Y-85.725
X133.355Y-93.345
X143.51Y-102.235
X143.51Y-109.855
X148.59Y-102.235
X148.59Y-109.855
X153.67Y-93.345
X153.67Y-100.965
X158.75Y-93.345
X158.75Y-100.965
X161.29Y-102.235
X161.29Y-109.855
X166.37Y-102.235
X166.37Y-109.855
X171.45Y-93.345
X171.45Y-100.965
X176.53Y-93.345
X176.53Y-100.965
X179.07Y-102.235
X179.07Y-109.855
X184.15Y-102.235
X184.15Y-109.855
X189.23Y-93.345
X189.23Y-100.965
X194.31Y-93.345
X194.31Y-100.965
X196.85Y-102.235
X196.85Y-109.855
X201.93Y-102.235
X201.93Y-109.855
T3
X81.915Y-78.105
X81.915Y-93.345
X83.82Y-104.775
X83.82Y-107.315
X83.82Y-109.855
X84.455Y-78.105
X84.455Y-93.345
X86.995Y-78.105
X86.995Y-93.345
X89.535Y-78.105
X89.535Y-93.345
X92.075Y-78.105
X92.075Y-93.345
X92.71Y-102.235
X92.71Y-109.855
X94.615Y-78.105
X94.615Y-93.345
X97.155Y-78.105
X97.155Y-93.345
X99.695Y-78.105
X99.695Y-93.345
X101.6Y-104.775
X101.6Y-107.315
X101.6Y-109.855
X102.235Y-78.105
X102.235Y-93.345
X102.445Y-80.645
X102.445Y-83.185
X102.445Y-85.725
X102.445Y-88.265
X102.445Y-90.805
X106.045Y-66.43
X106.045Y-71.43
X110.49Y-102.235
X110.49Y-109.855
X111.125Y-66.39
X111.125Y-71.39
X115.575Y-85.725
X115.575Y-93.345
X119.38Y-104.775
X119.38Y-107.315
X119.38Y-109.855
X120.655Y-85.725
X120.655Y-88.265
X120.655Y-90.805
X120.655Y-93.345
X128.27Y-102.235
X128.27Y-109.855
X128.275Y-85.725
X128.275Y-88.265
X128.275Y-90.805
X128.275Y-93.345
X137.16Y-104.775
X137.16Y-107.315
X137.16Y-109.855
X146.05Y-102.235
X146.05Y-109.855
X154.94Y-104.775
X154.94Y-107.315
X154.94Y-109.855
X156.21Y-93.345
X156.21Y-100.965
X163.83Y-102.235
X163.83Y-109.855
X165.1Y-93.345
X165.1Y-95.885
X165.1Y-98.425
X172.72Y-104.775
X172.72Y-107.315
X172.72Y-109.855
X173.99Y-93.345
X173.99Y-100.965
X181.61Y-102.235
X181.61Y-109.855
X182.88Y-93.345
X182.88Y-95.885
X182.88Y-98.425
X190.5Y-104.775
X190.5Y-107.315
X190.5Y-109.855
X191.77Y-93.345
X191.77Y-100.965
X199.39Y-102.235
X199.39Y-109.855
X200.66Y-93.345
X200.66Y-95.885
X200.66Y-98.425
T4
X86.995Y-107.315
X86.995Y-109.855
X104.775Y-107.315
X104.775Y-109.855
X122.555Y-107.315
X122.555Y-109.855
X140.335Y-107.315
X140.335Y-109.855
X158.115Y-107.315
X158.115Y-109.855
X161.925Y-93.345
X161.925Y-95.885
X175.895Y-107.315
X175.895Y-109.855
X179.705Y-93.345
X179.705Y-95.885
X193.675Y-107.315
X193.675Y-109.855
X197.485Y-93.345
X197.485Y-95.885
T5
X82.55Y-113.03
X82.55Y-118.11
X87.63Y-113.03
X87.63Y-118.11
X90.17Y-113.03
X90.17Y-118.11
X92.71Y-113.03
X92.71Y-118.11
X100.33Y-113.03
X100.33Y-118.11
X105.41Y-113.03
X105.41Y-118.11
X107.95Y-113.03
X107.95Y-118.11
X110.49Y-113.03
X110.49Y-118.11
X118.11Y-113.03
X118.11Y-118.11
X123.19Y-113.03
X123.19Y-118.11
X125.73Y-113.03
X125.73Y-118.11
X128.27Y-113.03
X128.27Y-118.11
X135.89Y-113.03
X135.89Y-118.11
X140.97Y-113.03
X140.97Y-118.11
X143.51Y-113.03
X143.51Y-118.11
X146.05Y-113.03
X146.05Y-118.11
X153.67Y-113.03
X153.67Y-118.11
X156.21Y-85.09
X156.21Y-90.17
X158.75Y-85.09
X158.75Y-90.17
X158.75Y-113.03
X158.75Y-118.11
X161.29Y-85.09
X161.29Y-90.17
X161.29Y-113.03
X161.29Y-118.11
X163.83Y-113.03
X163.83Y-118.11
X166.37Y-85.09
X166.37Y-90.17
X171.45Y-113.03
X171.45Y-118.11
X173.99Y-85.09
X173.99Y-90.17
X176.53Y-85.09
X176.53Y-90.17
X176.53Y-113.03
X176.53Y-118.11
X179.07Y-85.09
X179.07Y-90.17
X179.07Y-113.03
X179.07Y-118.11
X181.61Y-113.03
X181.61Y-118.11
X184.15Y-85.09
X184.15Y-90.17
X189.23Y-113.03
X189.23Y-118.11
X191.77Y-85.09
X191.77Y-90.17
X194.31Y-85.09
X194.31Y-90.17
X194.31Y-113.03
X194.31Y-118.11
X196.85Y-85.09
X196.85Y-90.17
X196.85Y-113.03
X196.85Y-118.11
X199.39Y-113.03
X199.39Y-118.11
X201.93Y-85.09
X201.93Y-90.17
T6
X106.045Y-61.31
X108.585Y-61.31
X111.125Y-61.31
T3
G00X82.95Y-125.02
M15
G01X81.75Y-125.02
M16
G05
G00X82.95Y-131.37
M15
G01X81.75Y-131.37
M16
G05
G00X82.95Y-137.72
M15
G01X81.75Y-137.72
M16
G05
G00X83.05Y-128.87
M15
G01X83.05Y-127.67
M16
G05
G00X83.05Y-135.22
M15
G01X83.05Y-134.02
M16
G05
G00X83.05Y-141.67
M15
G01X83.05Y-140.27
M16
G05
G00X94.75Y-128.87
M15
G01X94.75Y-127.67
M16
G05
G00X94.75Y-135.22
M15
G01X94.75Y-134.02
M16
G05
G00X94.75Y-141.57
M15
G01X94.75Y-140.37
M16
G05
G00X96.05Y-125.02
M15
G01X94.85Y-125.02
M16
G05
G00X96.05Y-131.37
M15
G01X94.85Y-131.37
M16
G05
G00X96.05Y-137.72
M15
G01X94.85Y-137.72
M16
G05
G00X100.73Y-125.02
M15
G01X99.53Y-125.02
M16
G05
G00X100.73Y-131.37
M15
G01X99.53Y-131.37
M16
G05
G00X100.73Y-137.72
M15
G01X99.53Y-137.72
M16
G05
G00X100.83Y-128.87
M15
G01X100.83Y-127.67
M16
G05
G00X100.83Y-135.22
M15
G01X100.83Y-134.02
M16
G05
G00X100.83Y-141.67
M15
G01X100.83Y-140.27
M16
G05
G00X112.53Y-128.87
M15
G01X112.53Y-127.67
M16
G05
G00X112.53Y-135.22
M15
G01X112.53Y-134.02
M16
G05
G00X112.53Y-141.57
M15
G01X112.53Y-140.37
M16
G05
G00X113.83Y-125.02
M15
G01X112.63Y-125.02
M16
G05
G00X113.83Y-131.37
M15
G01X112.63Y-131.37
M16
G05
G00X113.83Y-137.72
M15
G01X112.63Y-137.72
M16
G05
G00X117.31Y-65.48
M15
G01X118.51Y-65.48
M16
G05
G00X117.31Y-71.83
M15
G01X118.51Y-71.83
M16
G05
G00X117.31Y-78.18
M15
G01X118.51Y-78.18
M16
G05
G00X118.51Y-125.02
M15
G01X117.31Y-125.02
M16
G05
G00X118.51Y-131.37
M15
G01X117.31Y-131.37
M16
G05
G00X118.51Y-137.72
M15
G01X117.31Y-137.72
M16
G05
G00X118.61Y-61.63
M15
G01X118.61Y-62.83
M16
G05
G00X118.61Y-67.98
M15
G01X118.61Y-69.18
M16
G05
G00X118.61Y-74.33
M15
G01X118.61Y-75.53
M16
G05
G00X118.61Y-128.87
M15
G01X118.61Y-127.67
M16
G05
G00X118.61Y-135.22
M15
G01X118.61Y-134.02
M16
G05
G00X118.61Y-141.67
M15
G01X118.61Y-140.27
M16
G05
G00X130.31Y-61.53
M15
G01X130.31Y-62.93
M16
G05
G00X130.31Y-67.98
M15
G01X130.31Y-69.18
M16
G05
G00X130.31Y-74.33
M15
G01X130.31Y-75.53
M16
G05
G00X130.31Y-128.87
M15
G01X130.31Y-127.67
M16
G05
G00X130.31Y-135.22
M15
G01X130.31Y-134.02
M16
G05
G00X130.31Y-141.57
M15
G01X130.31Y-140.37
M16
G05
G00X130.41Y-65.48
M15
G01X131.61Y-65.48
M16
G05
G00X130.41Y-71.83
M15
G01X131.61Y-71.83
M16
G05
G00X130.41Y-78.18
M15
G01X131.61Y-78.18
M16
G05
G00X131.61Y-125.02
M15
G01X130.41Y-125.02
M16
G05
G00X131.61Y-131.37
M15
G01X130.41Y-131.37
M16
G05
G00X131.61Y-137.72
M15
G01X130.41Y-137.72
M16
G05
G00X135.09Y-65.48
M15
G01X136.29Y-65.48
M16
G05
G00X135.09Y-71.83
M15
G01X136.29Y-71.83
M16
G05
G00X135.09Y-78.18
M15
G01X136.29Y-78.18
M16
G05
G00X136.29Y-125.02
M15
G01X135.09Y-125.02
M16
G05
G00X136.29Y-131.37
M15
G01X135.09Y-131.37
M16
G05
G00X136.29Y-137.72
M15
G01X135.09Y-137.72
M16
G05
G00X136.39Y-61.63
M15
G01X136.39Y-62.83
M16
G05
G00X136.39Y-67.98
M15
G01X136.39Y-69.18
M16
G05
G00X136.39Y-74.33
M15
G01X136.39Y-75.53
M16
G05
G00X136.39Y-128.87
M15
G01X136.39Y-127.67
M16
G05
G00X136.39Y-135.22
M15
G01X136.39Y-134.02
M16
G05
G00X136.39Y-141.67
M15
G01X136.39Y-140.27
M16
G05
G00X148.09Y-61.53
M15
G01X148.09Y-62.93
M16
G05
G00X148.09Y-67.98
M15
G01X148.09Y-69.18
M16
G05
G00X148.09Y-74.33
M15
G01X148.09Y-75.53
M16
G05
G00X148.09Y-128.87
M15
G01X148.09Y-127.67
M16
G05
G00X148.09Y-135.22
M15
G01X148.09Y-134.02
M16
G05
G00X148.09Y-141.57
M15
G01X148.09Y-140.37
M16
G05
G00X148.19Y-65.48
M15
G01X149.39Y-65.48
M16
G05
G00X148.19Y-71.83
M15
G01X149.39Y-71.83
M16
G05
G00X148.19Y-78.18
M15
G01X149.39Y-78.18
M16
G05
G00X149.39Y-125.02
M15
G01X148.19Y-125.02
M16
G05
G00X149.39Y-131.37
M15
G01X148.19Y-131.37
M16
G05
G00X149.39Y-137.72
M15
G01X148.19Y-137.72
M16
G05
G00X152.87Y-65.48
M15
G01X154.07Y-65.48
M16
G05
G00X152.87Y-71.83
M15
G01X154.07Y-71.83
M16
G05
G00X152.87Y-78.18
M15
G01X154.07Y-78.18
M16
G05
G00X154.07Y-125.02
M15
G01X152.87Y-125.02
M16
G05
G00X154.07Y-131.37
M15
G01X152.87Y-131.37
M16
G05
G00X154.07Y-137.72
M15
G01X152.87Y-137.72
M16
G05
G00X154.17Y-61.63
M15
G01X154.17Y-62.83
M16
G05
G00X154.17Y-67.98
M15
G01X154.17Y-69.18
M16
G05
G00X154.17Y-74.33
M15
G01X154.17Y-75.53
M16
G05
G00X154.17Y-128.87
M15
G01X154.17Y-127.67
M16
G05
G00X154.17Y-135.22
M15
G01X154.17Y-134.02
M16
G05
G00X154.17Y-141.67
M15
G01X154.17Y-140.27
M16
G05
G00X165.87Y-61.53
M15
G01X165.87Y-62.93
M16
G05
G00X165.87Y-67.98
M15
G01X165.87Y-69.18
M16
G05
G00X165.87Y-74.33
M15
G01X165.87Y-75.53
M16
G05
G00X165.87Y-128.87
M15
G01X165.87Y-127.67
M16
G05
G00X165.87Y-135.22
M15
G01X165.87Y-134.02
M16
G05
G00X165.87Y-141.57
M15
G01X165.87Y-140.37
M16
G05
G00X165.97Y-65.48
M15
G01X167.17Y-65.48
M16
G05
G00X165.97Y-71.83
M15
G01X167.17Y-71.83
M16
G05
G00X165.97Y-78.18
M15
G01X167.17Y-78.18
M16
G05
G00X167.17Y-125.02
M15
G01X165.97Y-125.02
M16
G05
G00X167.17Y-131.37
M15
G01X165.97Y-131.37
M16
G05
G00X167.17Y-137.72
M15
G01X165.97Y-137.72
M16
G05
G00X170.65Y-65.48
M15
G01X171.85Y-65.48
M16
G05
G00X170.65Y-71.83
M15
G01X171.85Y-71.83
M16
G05
G00X170.65Y-78.18
M15
G01X171.85Y-78.18
M16
G05
G00X171.85Y-125.02
M15
G01X170.65Y-125.02
M16
G05
G00X171.85Y-131.37
M15
G01X170.65Y-131.37
M16
G05
G00X171.85Y-137.72
M15
G01X170.65Y-137.72
M16
G05
G00X171.95Y-61.63
M15
G01X171.95Y-62.83
M16
G05
G00X171.95Y-67.98
M15
G01X171.95Y-69.18
M16
G05
G00X171.95Y-74.33
M15
G01X171.95Y-75.53
M16
G05
G00X171.95Y-128.87
M15
G01X171.95Y-127.67
M16
G05
G00X171.95Y-135.22
M15
G01X171.95Y-134.02
M16
G05
G00X171.95Y-141.67
M15
G01X171.95Y-140.27
M16
G05
G00X183.65Y-61.53
M15
G01X183.65Y-62.93
M16
G05
G00X183.65Y-67.98
M15
G01X183.65Y-69.18
M16
G05
G00X183.65Y-74.33
M15
G01X183.65Y-75.53
M16
G05
G00X183.65Y-128.87
M15
G01X183.65Y-127.67
M16
G05
G00X183.65Y-135.22
M15
G01X183.65Y-134.02
M16
G05
G00X183.65Y-141.57
M15
G01X183.65Y-140.37
M16
G05
G00X183.75Y-65.48
M15
G01X184.95Y-65.48
M16
G05
G00X183.75Y-71.83
M15
G01X184.95Y-71.83
M16
G05
G00X183.75Y-78.18
M15
G01X184.95Y-78.18
M16
G05
G00X184.95Y-125.02
M15
G01X183.75Y-125.02
M16
G05
G00X184.95Y-131.37
M15
G01X183.75Y-131.37
M16
G05
G00X184.95Y-137.72
M15
G01X183.75Y-137.72
M16
G05
G00X188.43Y-65.48
M15
G01X189.63Y-65.48
M16
G05
G00X188.43Y-71.83
M15
G01X189.63Y-71.83
M16
G05
G00X188.43Y-78.18
M15
G01X189.63Y-78.18
M16
G05
G00X189.63Y-125.02
M15
G01X188.43Y-125.02
M16
G05
G00X189.63Y-131.37
M15
G01X188.43Y-131.37
M16
G05
G00X189.63Y-137.72
M15
G01X188.43Y-137.72
M16
G05
G00X189.73Y-61.63
M15
G01X189.73Y-62.83
M16
G05
G00X189.73Y-67.98
M15
G01X189.73Y-69.18
M16
G05
G00X189.73Y-74.33
M15
G01X189.73Y-75.53
M16
G05
G00X189.73Y-128.87
M15
G01X189.73Y-127.67
M16
G05
G00X189.73Y-135.22
M15
G01X189.73Y-134.02
M16
G05
G00X189.73Y-141.67
M15
G01X189.73Y-140.27
M16
G05
G00X201.43Y-61.53
M15
G01X201.43Y-62.93
M16
G05
G00X201.43Y-67.98
M15
G01X201.43Y-69.18
M16
G05
G00X201.43Y-74.33
M15
G01X201.43Y-75.53
M16
G05
G00X201.43Y-128.87
M15
G01X201.43Y-127.67
M16
G05
G00X201.43Y-135.22
M15
G01X201.43Y-134.02
M16
G05
G00X201.43Y-141.57
M15
G01X201.43Y-140.37
M16
G05
G00X201.53Y-65.48
M15
G01X202.73Y-65.48
M16
G05
G00X201.53Y-71.83
M15
G01X202.73Y-71.83
M16
G05
G00X201.53Y-78.18
M15
G01X202.73Y-78.18
M16
G05
G00X202.73Y-125.02
M15
G01X201.53Y-125.02
M16
G05
G00X202.73Y-131.37
M15
G01X201.53Y-131.37
M16
G05
G00X202.73Y-137.72
M15
G01X201.53Y-137.72
M16
G05
T5
G00X89.915Y-68.39
M15
G01X89.915Y-70.39
M16
G05
G00X95.615Y-66.39
M15
G01X93.615Y-66.39
M16
G05
G00X95.615Y-72.39
M15
G01X93.615Y-72.39
M16
G05
M30
