%TF.GenerationSoftware,KiCad,Pcbnew,9.0.7*%
%TF.CreationDate,2026-05-30T18:00:36+03:00*%
%TF.ProjectId,midipawn,6d696469-7061-4776-9e2e-6b696361645f,rev?*%
%TF.SameCoordinates,Original*%
%TF.FileFunction,Legend,Bot*%
%TF.FilePolarity,Positive*%
%FSLAX46Y46*%
G04 Gerber Fmt 4.6, Leading zero omitted, Abs format (unit mm)*
G04 Created by KiCad (PCBNEW 9.0.7) date 2026-05-30 18:00:36*
%MOMM*%
%LPD*%
G01*
G04 APERTURE LIST*
%ADD10C,0.150000*%
%ADD11C,0.120000*%
G04 APERTURE END LIST*
D10*
X122673809Y-62684819D02*
X122483333Y-62684819D01*
X122483333Y-62684819D02*
X122388095Y-62637200D01*
X122388095Y-62637200D02*
X122340476Y-62589580D01*
X122340476Y-62589580D02*
X122245238Y-62446723D01*
X122245238Y-62446723D02*
X122197619Y-62256247D01*
X122197619Y-62256247D02*
X122197619Y-61875295D01*
X122197619Y-61875295D02*
X122245238Y-61780057D01*
X122245238Y-61780057D02*
X122292857Y-61732438D01*
X122292857Y-61732438D02*
X122388095Y-61684819D01*
X122388095Y-61684819D02*
X122578571Y-61684819D01*
X122578571Y-61684819D02*
X122673809Y-61732438D01*
X122673809Y-61732438D02*
X122721428Y-61780057D01*
X122721428Y-61780057D02*
X122769047Y-61875295D01*
X122769047Y-61875295D02*
X122769047Y-62113390D01*
X122769047Y-62113390D02*
X122721428Y-62208628D01*
X122721428Y-62208628D02*
X122673809Y-62256247D01*
X122673809Y-62256247D02*
X122578571Y-62303866D01*
X122578571Y-62303866D02*
X122388095Y-62303866D01*
X122388095Y-62303866D02*
X122292857Y-62256247D01*
X122292857Y-62256247D02*
X122245238Y-62208628D01*
X122245238Y-62208628D02*
X122197619Y-62113390D01*
X121911904Y-61684819D02*
X121578571Y-62684819D01*
X121578571Y-62684819D02*
X121245238Y-61684819D01*
X119578571Y-62589580D02*
X119626190Y-62637200D01*
X119626190Y-62637200D02*
X119769047Y-62684819D01*
X119769047Y-62684819D02*
X119864285Y-62684819D01*
X119864285Y-62684819D02*
X120007142Y-62637200D01*
X120007142Y-62637200D02*
X120102380Y-62541961D01*
X120102380Y-62541961D02*
X120149999Y-62446723D01*
X120149999Y-62446723D02*
X120197618Y-62256247D01*
X120197618Y-62256247D02*
X120197618Y-62113390D01*
X120197618Y-62113390D02*
X120149999Y-61922914D01*
X120149999Y-61922914D02*
X120102380Y-61827676D01*
X120102380Y-61827676D02*
X120007142Y-61732438D01*
X120007142Y-61732438D02*
X119864285Y-61684819D01*
X119864285Y-61684819D02*
X119769047Y-61684819D01*
X119769047Y-61684819D02*
X119626190Y-61732438D01*
X119626190Y-61732438D02*
X119578571Y-61780057D01*
X119149999Y-62684819D02*
X119149999Y-61684819D01*
X119149999Y-61684819D02*
X118578571Y-62684819D01*
X118578571Y-62684819D02*
X118578571Y-61684819D01*
X212280238Y-62684819D02*
X212756428Y-62684819D01*
X212756428Y-62684819D02*
X212756428Y-61684819D01*
X211756428Y-61684819D02*
X211565952Y-61684819D01*
X211565952Y-61684819D02*
X211470714Y-61732438D01*
X211470714Y-61732438D02*
X211375476Y-61827676D01*
X211375476Y-61827676D02*
X211327857Y-62018152D01*
X211327857Y-62018152D02*
X211327857Y-62351485D01*
X211327857Y-62351485D02*
X211375476Y-62541961D01*
X211375476Y-62541961D02*
X211470714Y-62637200D01*
X211470714Y-62637200D02*
X211565952Y-62684819D01*
X211565952Y-62684819D02*
X211756428Y-62684819D01*
X211756428Y-62684819D02*
X211851666Y-62637200D01*
X211851666Y-62637200D02*
X211946904Y-62541961D01*
X211946904Y-62541961D02*
X211994523Y-62351485D01*
X211994523Y-62351485D02*
X211994523Y-62018152D01*
X211994523Y-62018152D02*
X211946904Y-61827676D01*
X211946904Y-61827676D02*
X211851666Y-61732438D01*
X211851666Y-61732438D02*
X211756428Y-61684819D01*
X210708809Y-61684819D02*
X210518333Y-61684819D01*
X210518333Y-61684819D02*
X210423095Y-61732438D01*
X210423095Y-61732438D02*
X210327857Y-61827676D01*
X210327857Y-61827676D02*
X210280238Y-62018152D01*
X210280238Y-62018152D02*
X210280238Y-62351485D01*
X210280238Y-62351485D02*
X210327857Y-62541961D01*
X210327857Y-62541961D02*
X210423095Y-62637200D01*
X210423095Y-62637200D02*
X210518333Y-62684819D01*
X210518333Y-62684819D02*
X210708809Y-62684819D01*
X210708809Y-62684819D02*
X210804047Y-62637200D01*
X210804047Y-62637200D02*
X210899285Y-62541961D01*
X210899285Y-62541961D02*
X210946904Y-62351485D01*
X210946904Y-62351485D02*
X210946904Y-62018152D01*
X210946904Y-62018152D02*
X210899285Y-61827676D01*
X210899285Y-61827676D02*
X210804047Y-61732438D01*
X210804047Y-61732438D02*
X210708809Y-61684819D01*
X209851666Y-62684819D02*
X209851666Y-61684819D01*
X209851666Y-61684819D02*
X209470714Y-61684819D01*
X209470714Y-61684819D02*
X209375476Y-61732438D01*
X209375476Y-61732438D02*
X209327857Y-61780057D01*
X209327857Y-61780057D02*
X209280238Y-61875295D01*
X209280238Y-61875295D02*
X209280238Y-62018152D01*
X209280238Y-62018152D02*
X209327857Y-62113390D01*
X209327857Y-62113390D02*
X209375476Y-62161009D01*
X209375476Y-62161009D02*
X209470714Y-62208628D01*
X209470714Y-62208628D02*
X209851666Y-62208628D01*
X208137380Y-61780057D02*
X208089761Y-61732438D01*
X208089761Y-61732438D02*
X207994523Y-61684819D01*
X207994523Y-61684819D02*
X207756428Y-61684819D01*
X207756428Y-61684819D02*
X207661190Y-61732438D01*
X207661190Y-61732438D02*
X207613571Y-61780057D01*
X207613571Y-61780057D02*
X207565952Y-61875295D01*
X207565952Y-61875295D02*
X207565952Y-61970533D01*
X207565952Y-61970533D02*
X207613571Y-62113390D01*
X207613571Y-62113390D02*
X208184999Y-62684819D01*
X208184999Y-62684819D02*
X207565952Y-62684819D01*
X158559761Y-140515180D02*
X158083571Y-140515180D01*
X158083571Y-140515180D02*
X158083571Y-141515180D01*
X159083571Y-141515180D02*
X159274047Y-141515180D01*
X159274047Y-141515180D02*
X159369285Y-141467561D01*
X159369285Y-141467561D02*
X159464523Y-141372323D01*
X159464523Y-141372323D02*
X159512142Y-141181847D01*
X159512142Y-141181847D02*
X159512142Y-140848514D01*
X159512142Y-140848514D02*
X159464523Y-140658038D01*
X159464523Y-140658038D02*
X159369285Y-140562800D01*
X159369285Y-140562800D02*
X159274047Y-140515180D01*
X159274047Y-140515180D02*
X159083571Y-140515180D01*
X159083571Y-140515180D02*
X158988333Y-140562800D01*
X158988333Y-140562800D02*
X158893095Y-140658038D01*
X158893095Y-140658038D02*
X158845476Y-140848514D01*
X158845476Y-140848514D02*
X158845476Y-141181847D01*
X158845476Y-141181847D02*
X158893095Y-141372323D01*
X158893095Y-141372323D02*
X158988333Y-141467561D01*
X158988333Y-141467561D02*
X159083571Y-141515180D01*
X160131190Y-141515180D02*
X160321666Y-141515180D01*
X160321666Y-141515180D02*
X160416904Y-141467561D01*
X160416904Y-141467561D02*
X160512142Y-141372323D01*
X160512142Y-141372323D02*
X160559761Y-141181847D01*
X160559761Y-141181847D02*
X160559761Y-140848514D01*
X160559761Y-140848514D02*
X160512142Y-140658038D01*
X160512142Y-140658038D02*
X160416904Y-140562800D01*
X160416904Y-140562800D02*
X160321666Y-140515180D01*
X160321666Y-140515180D02*
X160131190Y-140515180D01*
X160131190Y-140515180D02*
X160035952Y-140562800D01*
X160035952Y-140562800D02*
X159940714Y-140658038D01*
X159940714Y-140658038D02*
X159893095Y-140848514D01*
X159893095Y-140848514D02*
X159893095Y-141181847D01*
X159893095Y-141181847D02*
X159940714Y-141372323D01*
X159940714Y-141372323D02*
X160035952Y-141467561D01*
X160035952Y-141467561D02*
X160131190Y-141515180D01*
X160988333Y-140515180D02*
X160988333Y-141515180D01*
X160988333Y-141515180D02*
X161369285Y-141515180D01*
X161369285Y-141515180D02*
X161464523Y-141467561D01*
X161464523Y-141467561D02*
X161512142Y-141419942D01*
X161512142Y-141419942D02*
X161559761Y-141324704D01*
X161559761Y-141324704D02*
X161559761Y-141181847D01*
X161559761Y-141181847D02*
X161512142Y-141086609D01*
X161512142Y-141086609D02*
X161464523Y-141038990D01*
X161464523Y-141038990D02*
X161369285Y-140991371D01*
X161369285Y-140991371D02*
X160988333Y-140991371D01*
X163178809Y-141515180D02*
X162988333Y-141515180D01*
X162988333Y-141515180D02*
X162893095Y-141467561D01*
X162893095Y-141467561D02*
X162845476Y-141419942D01*
X162845476Y-141419942D02*
X162750238Y-141277085D01*
X162750238Y-141277085D02*
X162702619Y-141086609D01*
X162702619Y-141086609D02*
X162702619Y-140705657D01*
X162702619Y-140705657D02*
X162750238Y-140610419D01*
X162750238Y-140610419D02*
X162797857Y-140562800D01*
X162797857Y-140562800D02*
X162893095Y-140515180D01*
X162893095Y-140515180D02*
X163083571Y-140515180D01*
X163083571Y-140515180D02*
X163178809Y-140562800D01*
X163178809Y-140562800D02*
X163226428Y-140610419D01*
X163226428Y-140610419D02*
X163274047Y-140705657D01*
X163274047Y-140705657D02*
X163274047Y-140943752D01*
X163274047Y-140943752D02*
X163226428Y-141038990D01*
X163226428Y-141038990D02*
X163178809Y-141086609D01*
X163178809Y-141086609D02*
X163083571Y-141134228D01*
X163083571Y-141134228D02*
X162893095Y-141134228D01*
X162893095Y-141134228D02*
X162797857Y-141086609D01*
X162797857Y-141086609D02*
X162750238Y-141038990D01*
X162750238Y-141038990D02*
X162702619Y-140943752D01*
X208089761Y-140515180D02*
X207613571Y-140515180D01*
X207613571Y-140515180D02*
X207613571Y-141515180D01*
X208613571Y-141515180D02*
X208804047Y-141515180D01*
X208804047Y-141515180D02*
X208899285Y-141467561D01*
X208899285Y-141467561D02*
X208994523Y-141372323D01*
X208994523Y-141372323D02*
X209042142Y-141181847D01*
X209042142Y-141181847D02*
X209042142Y-140848514D01*
X209042142Y-140848514D02*
X208994523Y-140658038D01*
X208994523Y-140658038D02*
X208899285Y-140562800D01*
X208899285Y-140562800D02*
X208804047Y-140515180D01*
X208804047Y-140515180D02*
X208613571Y-140515180D01*
X208613571Y-140515180D02*
X208518333Y-140562800D01*
X208518333Y-140562800D02*
X208423095Y-140658038D01*
X208423095Y-140658038D02*
X208375476Y-140848514D01*
X208375476Y-140848514D02*
X208375476Y-141181847D01*
X208375476Y-141181847D02*
X208423095Y-141372323D01*
X208423095Y-141372323D02*
X208518333Y-141467561D01*
X208518333Y-141467561D02*
X208613571Y-141515180D01*
X209661190Y-141515180D02*
X209851666Y-141515180D01*
X209851666Y-141515180D02*
X209946904Y-141467561D01*
X209946904Y-141467561D02*
X210042142Y-141372323D01*
X210042142Y-141372323D02*
X210089761Y-141181847D01*
X210089761Y-141181847D02*
X210089761Y-140848514D01*
X210089761Y-140848514D02*
X210042142Y-140658038D01*
X210042142Y-140658038D02*
X209946904Y-140562800D01*
X209946904Y-140562800D02*
X209851666Y-140515180D01*
X209851666Y-140515180D02*
X209661190Y-140515180D01*
X209661190Y-140515180D02*
X209565952Y-140562800D01*
X209565952Y-140562800D02*
X209470714Y-140658038D01*
X209470714Y-140658038D02*
X209423095Y-140848514D01*
X209423095Y-140848514D02*
X209423095Y-141181847D01*
X209423095Y-141181847D02*
X209470714Y-141372323D01*
X209470714Y-141372323D02*
X209565952Y-141467561D01*
X209565952Y-141467561D02*
X209661190Y-141515180D01*
X210518333Y-140515180D02*
X210518333Y-141515180D01*
X210518333Y-141515180D02*
X210899285Y-141515180D01*
X210899285Y-141515180D02*
X210994523Y-141467561D01*
X210994523Y-141467561D02*
X211042142Y-141419942D01*
X211042142Y-141419942D02*
X211089761Y-141324704D01*
X211089761Y-141324704D02*
X211089761Y-141181847D01*
X211089761Y-141181847D02*
X211042142Y-141086609D01*
X211042142Y-141086609D02*
X210994523Y-141038990D01*
X210994523Y-141038990D02*
X210899285Y-140991371D01*
X210899285Y-140991371D02*
X210518333Y-140991371D01*
X212185000Y-141515180D02*
X212804047Y-141515180D01*
X212804047Y-141515180D02*
X212470714Y-141134228D01*
X212470714Y-141134228D02*
X212613571Y-141134228D01*
X212613571Y-141134228D02*
X212708809Y-141086609D01*
X212708809Y-141086609D02*
X212756428Y-141038990D01*
X212756428Y-141038990D02*
X212804047Y-140943752D01*
X212804047Y-140943752D02*
X212804047Y-140705657D01*
X212804047Y-140705657D02*
X212756428Y-140610419D01*
X212756428Y-140610419D02*
X212708809Y-140562800D01*
X212708809Y-140562800D02*
X212613571Y-140515180D01*
X212613571Y-140515180D02*
X212327857Y-140515180D01*
X212327857Y-140515180D02*
X212232619Y-140562800D01*
X212232619Y-140562800D02*
X212185000Y-140610419D01*
X109029761Y-140515180D02*
X108553571Y-140515180D01*
X108553571Y-140515180D02*
X108553571Y-141515180D01*
X109553571Y-141515180D02*
X109744047Y-141515180D01*
X109744047Y-141515180D02*
X109839285Y-141467561D01*
X109839285Y-141467561D02*
X109934523Y-141372323D01*
X109934523Y-141372323D02*
X109982142Y-141181847D01*
X109982142Y-141181847D02*
X109982142Y-140848514D01*
X109982142Y-140848514D02*
X109934523Y-140658038D01*
X109934523Y-140658038D02*
X109839285Y-140562800D01*
X109839285Y-140562800D02*
X109744047Y-140515180D01*
X109744047Y-140515180D02*
X109553571Y-140515180D01*
X109553571Y-140515180D02*
X109458333Y-140562800D01*
X109458333Y-140562800D02*
X109363095Y-140658038D01*
X109363095Y-140658038D02*
X109315476Y-140848514D01*
X109315476Y-140848514D02*
X109315476Y-141181847D01*
X109315476Y-141181847D02*
X109363095Y-141372323D01*
X109363095Y-141372323D02*
X109458333Y-141467561D01*
X109458333Y-141467561D02*
X109553571Y-141515180D01*
X110601190Y-141515180D02*
X110791666Y-141515180D01*
X110791666Y-141515180D02*
X110886904Y-141467561D01*
X110886904Y-141467561D02*
X110982142Y-141372323D01*
X110982142Y-141372323D02*
X111029761Y-141181847D01*
X111029761Y-141181847D02*
X111029761Y-140848514D01*
X111029761Y-140848514D02*
X110982142Y-140658038D01*
X110982142Y-140658038D02*
X110886904Y-140562800D01*
X110886904Y-140562800D02*
X110791666Y-140515180D01*
X110791666Y-140515180D02*
X110601190Y-140515180D01*
X110601190Y-140515180D02*
X110505952Y-140562800D01*
X110505952Y-140562800D02*
X110410714Y-140658038D01*
X110410714Y-140658038D02*
X110363095Y-140848514D01*
X110363095Y-140848514D02*
X110363095Y-141181847D01*
X110363095Y-141181847D02*
X110410714Y-141372323D01*
X110410714Y-141372323D02*
X110505952Y-141467561D01*
X110505952Y-141467561D02*
X110601190Y-141515180D01*
X111458333Y-140515180D02*
X111458333Y-141515180D01*
X111458333Y-141515180D02*
X111839285Y-141515180D01*
X111839285Y-141515180D02*
X111934523Y-141467561D01*
X111934523Y-141467561D02*
X111982142Y-141419942D01*
X111982142Y-141419942D02*
X112029761Y-141324704D01*
X112029761Y-141324704D02*
X112029761Y-141181847D01*
X112029761Y-141181847D02*
X111982142Y-141086609D01*
X111982142Y-141086609D02*
X111934523Y-141038990D01*
X111934523Y-141038990D02*
X111839285Y-140991371D01*
X111839285Y-140991371D02*
X111458333Y-140991371D01*
X113267857Y-140515180D02*
X113458333Y-140515180D01*
X113458333Y-140515180D02*
X113553571Y-140562800D01*
X113553571Y-140562800D02*
X113601190Y-140610419D01*
X113601190Y-140610419D02*
X113696428Y-140753276D01*
X113696428Y-140753276D02*
X113744047Y-140943752D01*
X113744047Y-140943752D02*
X113744047Y-141324704D01*
X113744047Y-141324704D02*
X113696428Y-141419942D01*
X113696428Y-141419942D02*
X113648809Y-141467561D01*
X113648809Y-141467561D02*
X113553571Y-141515180D01*
X113553571Y-141515180D02*
X113363095Y-141515180D01*
X113363095Y-141515180D02*
X113267857Y-141467561D01*
X113267857Y-141467561D02*
X113220238Y-141419942D01*
X113220238Y-141419942D02*
X113172619Y-141324704D01*
X113172619Y-141324704D02*
X113172619Y-141086609D01*
X113172619Y-141086609D02*
X113220238Y-140991371D01*
X113220238Y-140991371D02*
X113267857Y-140943752D01*
X113267857Y-140943752D02*
X113363095Y-140896133D01*
X113363095Y-140896133D02*
X113553571Y-140896133D01*
X113553571Y-140896133D02*
X113648809Y-140943752D01*
X113648809Y-140943752D02*
X113696428Y-140991371D01*
X113696428Y-140991371D02*
X113744047Y-141086609D01*
X163583570Y-62684819D02*
X163583570Y-61684819D01*
X163583570Y-61684819D02*
X163250237Y-62399104D01*
X163250237Y-62399104D02*
X162916904Y-61684819D01*
X162916904Y-61684819D02*
X162916904Y-62684819D01*
X162440713Y-62684819D02*
X162440713Y-61684819D01*
X161964523Y-62684819D02*
X161964523Y-61684819D01*
X161964523Y-61684819D02*
X161726428Y-61684819D01*
X161726428Y-61684819D02*
X161583571Y-61732438D01*
X161583571Y-61732438D02*
X161488333Y-61827676D01*
X161488333Y-61827676D02*
X161440714Y-61922914D01*
X161440714Y-61922914D02*
X161393095Y-62113390D01*
X161393095Y-62113390D02*
X161393095Y-62256247D01*
X161393095Y-62256247D02*
X161440714Y-62446723D01*
X161440714Y-62446723D02*
X161488333Y-62541961D01*
X161488333Y-62541961D02*
X161583571Y-62637200D01*
X161583571Y-62637200D02*
X161726428Y-62684819D01*
X161726428Y-62684819D02*
X161964523Y-62684819D01*
X160964523Y-62684819D02*
X160964523Y-61684819D01*
X159726428Y-62684819D02*
X159726428Y-61684819D01*
X158535953Y-61637200D02*
X159393095Y-62922914D01*
X158012143Y-61684819D02*
X157916905Y-61684819D01*
X157916905Y-61684819D02*
X157821667Y-61732438D01*
X157821667Y-61732438D02*
X157774048Y-61780057D01*
X157774048Y-61780057D02*
X157726429Y-61875295D01*
X157726429Y-61875295D02*
X157678810Y-62065771D01*
X157678810Y-62065771D02*
X157678810Y-62303866D01*
X157678810Y-62303866D02*
X157726429Y-62494342D01*
X157726429Y-62494342D02*
X157774048Y-62589580D01*
X157774048Y-62589580D02*
X157821667Y-62637200D01*
X157821667Y-62637200D02*
X157916905Y-62684819D01*
X157916905Y-62684819D02*
X158012143Y-62684819D01*
X158012143Y-62684819D02*
X158107381Y-62637200D01*
X158107381Y-62637200D02*
X158155000Y-62589580D01*
X158155000Y-62589580D02*
X158202619Y-62494342D01*
X158202619Y-62494342D02*
X158250238Y-62303866D01*
X158250238Y-62303866D02*
X158250238Y-62065771D01*
X158250238Y-62065771D02*
X158202619Y-61875295D01*
X158202619Y-61875295D02*
X158155000Y-61780057D01*
X158155000Y-61780057D02*
X158107381Y-61732438D01*
X158107381Y-61732438D02*
X158012143Y-61684819D01*
X125539761Y-140515180D02*
X125063571Y-140515180D01*
X125063571Y-140515180D02*
X125063571Y-141515180D01*
X126063571Y-141515180D02*
X126254047Y-141515180D01*
X126254047Y-141515180D02*
X126349285Y-141467561D01*
X126349285Y-141467561D02*
X126444523Y-141372323D01*
X126444523Y-141372323D02*
X126492142Y-141181847D01*
X126492142Y-141181847D02*
X126492142Y-140848514D01*
X126492142Y-140848514D02*
X126444523Y-140658038D01*
X126444523Y-140658038D02*
X126349285Y-140562800D01*
X126349285Y-140562800D02*
X126254047Y-140515180D01*
X126254047Y-140515180D02*
X126063571Y-140515180D01*
X126063571Y-140515180D02*
X125968333Y-140562800D01*
X125968333Y-140562800D02*
X125873095Y-140658038D01*
X125873095Y-140658038D02*
X125825476Y-140848514D01*
X125825476Y-140848514D02*
X125825476Y-141181847D01*
X125825476Y-141181847D02*
X125873095Y-141372323D01*
X125873095Y-141372323D02*
X125968333Y-141467561D01*
X125968333Y-141467561D02*
X126063571Y-141515180D01*
X127111190Y-141515180D02*
X127301666Y-141515180D01*
X127301666Y-141515180D02*
X127396904Y-141467561D01*
X127396904Y-141467561D02*
X127492142Y-141372323D01*
X127492142Y-141372323D02*
X127539761Y-141181847D01*
X127539761Y-141181847D02*
X127539761Y-140848514D01*
X127539761Y-140848514D02*
X127492142Y-140658038D01*
X127492142Y-140658038D02*
X127396904Y-140562800D01*
X127396904Y-140562800D02*
X127301666Y-140515180D01*
X127301666Y-140515180D02*
X127111190Y-140515180D01*
X127111190Y-140515180D02*
X127015952Y-140562800D01*
X127015952Y-140562800D02*
X126920714Y-140658038D01*
X126920714Y-140658038D02*
X126873095Y-140848514D01*
X126873095Y-140848514D02*
X126873095Y-141181847D01*
X126873095Y-141181847D02*
X126920714Y-141372323D01*
X126920714Y-141372323D02*
X127015952Y-141467561D01*
X127015952Y-141467561D02*
X127111190Y-141515180D01*
X127968333Y-140515180D02*
X127968333Y-141515180D01*
X127968333Y-141515180D02*
X128349285Y-141515180D01*
X128349285Y-141515180D02*
X128444523Y-141467561D01*
X128444523Y-141467561D02*
X128492142Y-141419942D01*
X128492142Y-141419942D02*
X128539761Y-141324704D01*
X128539761Y-141324704D02*
X128539761Y-141181847D01*
X128539761Y-141181847D02*
X128492142Y-141086609D01*
X128492142Y-141086609D02*
X128444523Y-141038990D01*
X128444523Y-141038990D02*
X128349285Y-140991371D01*
X128349285Y-140991371D02*
X127968333Y-140991371D01*
X129873095Y-141086609D02*
X129777857Y-141134228D01*
X129777857Y-141134228D02*
X129730238Y-141181847D01*
X129730238Y-141181847D02*
X129682619Y-141277085D01*
X129682619Y-141277085D02*
X129682619Y-141324704D01*
X129682619Y-141324704D02*
X129730238Y-141419942D01*
X129730238Y-141419942D02*
X129777857Y-141467561D01*
X129777857Y-141467561D02*
X129873095Y-141515180D01*
X129873095Y-141515180D02*
X130063571Y-141515180D01*
X130063571Y-141515180D02*
X130158809Y-141467561D01*
X130158809Y-141467561D02*
X130206428Y-141419942D01*
X130206428Y-141419942D02*
X130254047Y-141324704D01*
X130254047Y-141324704D02*
X130254047Y-141277085D01*
X130254047Y-141277085D02*
X130206428Y-141181847D01*
X130206428Y-141181847D02*
X130158809Y-141134228D01*
X130158809Y-141134228D02*
X130063571Y-141086609D01*
X130063571Y-141086609D02*
X129873095Y-141086609D01*
X129873095Y-141086609D02*
X129777857Y-141038990D01*
X129777857Y-141038990D02*
X129730238Y-140991371D01*
X129730238Y-140991371D02*
X129682619Y-140896133D01*
X129682619Y-140896133D02*
X129682619Y-140705657D01*
X129682619Y-140705657D02*
X129730238Y-140610419D01*
X129730238Y-140610419D02*
X129777857Y-140562800D01*
X129777857Y-140562800D02*
X129873095Y-140515180D01*
X129873095Y-140515180D02*
X130063571Y-140515180D01*
X130063571Y-140515180D02*
X130158809Y-140562800D01*
X130158809Y-140562800D02*
X130206428Y-140610419D01*
X130206428Y-140610419D02*
X130254047Y-140705657D01*
X130254047Y-140705657D02*
X130254047Y-140896133D01*
X130254047Y-140896133D02*
X130206428Y-140991371D01*
X130206428Y-140991371D02*
X130158809Y-141038990D01*
X130158809Y-141038990D02*
X130063571Y-141086609D01*
X175069761Y-140515180D02*
X174593571Y-140515180D01*
X174593571Y-140515180D02*
X174593571Y-141515180D01*
X175593571Y-141515180D02*
X175784047Y-141515180D01*
X175784047Y-141515180D02*
X175879285Y-141467561D01*
X175879285Y-141467561D02*
X175974523Y-141372323D01*
X175974523Y-141372323D02*
X176022142Y-141181847D01*
X176022142Y-141181847D02*
X176022142Y-140848514D01*
X176022142Y-140848514D02*
X175974523Y-140658038D01*
X175974523Y-140658038D02*
X175879285Y-140562800D01*
X175879285Y-140562800D02*
X175784047Y-140515180D01*
X175784047Y-140515180D02*
X175593571Y-140515180D01*
X175593571Y-140515180D02*
X175498333Y-140562800D01*
X175498333Y-140562800D02*
X175403095Y-140658038D01*
X175403095Y-140658038D02*
X175355476Y-140848514D01*
X175355476Y-140848514D02*
X175355476Y-141181847D01*
X175355476Y-141181847D02*
X175403095Y-141372323D01*
X175403095Y-141372323D02*
X175498333Y-141467561D01*
X175498333Y-141467561D02*
X175593571Y-141515180D01*
X176641190Y-141515180D02*
X176831666Y-141515180D01*
X176831666Y-141515180D02*
X176926904Y-141467561D01*
X176926904Y-141467561D02*
X177022142Y-141372323D01*
X177022142Y-141372323D02*
X177069761Y-141181847D01*
X177069761Y-141181847D02*
X177069761Y-140848514D01*
X177069761Y-140848514D02*
X177022142Y-140658038D01*
X177022142Y-140658038D02*
X176926904Y-140562800D01*
X176926904Y-140562800D02*
X176831666Y-140515180D01*
X176831666Y-140515180D02*
X176641190Y-140515180D01*
X176641190Y-140515180D02*
X176545952Y-140562800D01*
X176545952Y-140562800D02*
X176450714Y-140658038D01*
X176450714Y-140658038D02*
X176403095Y-140848514D01*
X176403095Y-140848514D02*
X176403095Y-141181847D01*
X176403095Y-141181847D02*
X176450714Y-141372323D01*
X176450714Y-141372323D02*
X176545952Y-141467561D01*
X176545952Y-141467561D02*
X176641190Y-141515180D01*
X177498333Y-140515180D02*
X177498333Y-141515180D01*
X177498333Y-141515180D02*
X177879285Y-141515180D01*
X177879285Y-141515180D02*
X177974523Y-141467561D01*
X177974523Y-141467561D02*
X178022142Y-141419942D01*
X178022142Y-141419942D02*
X178069761Y-141324704D01*
X178069761Y-141324704D02*
X178069761Y-141181847D01*
X178069761Y-141181847D02*
X178022142Y-141086609D01*
X178022142Y-141086609D02*
X177974523Y-141038990D01*
X177974523Y-141038990D02*
X177879285Y-140991371D01*
X177879285Y-140991371D02*
X177498333Y-140991371D01*
X179736428Y-141515180D02*
X179260238Y-141515180D01*
X179260238Y-141515180D02*
X179212619Y-141038990D01*
X179212619Y-141038990D02*
X179260238Y-141086609D01*
X179260238Y-141086609D02*
X179355476Y-141134228D01*
X179355476Y-141134228D02*
X179593571Y-141134228D01*
X179593571Y-141134228D02*
X179688809Y-141086609D01*
X179688809Y-141086609D02*
X179736428Y-141038990D01*
X179736428Y-141038990D02*
X179784047Y-140943752D01*
X179784047Y-140943752D02*
X179784047Y-140705657D01*
X179784047Y-140705657D02*
X179736428Y-140610419D01*
X179736428Y-140610419D02*
X179688809Y-140562800D01*
X179688809Y-140562800D02*
X179593571Y-140515180D01*
X179593571Y-140515180D02*
X179355476Y-140515180D01*
X179355476Y-140515180D02*
X179260238Y-140562800D01*
X179260238Y-140562800D02*
X179212619Y-140610419D01*
X178164999Y-62684819D02*
X178164999Y-61684819D01*
X176974524Y-61637200D02*
X177831666Y-62922914D01*
X176450714Y-61684819D02*
X176355476Y-61684819D01*
X176355476Y-61684819D02*
X176260238Y-61732438D01*
X176260238Y-61732438D02*
X176212619Y-61780057D01*
X176212619Y-61780057D02*
X176165000Y-61875295D01*
X176165000Y-61875295D02*
X176117381Y-62065771D01*
X176117381Y-62065771D02*
X176117381Y-62303866D01*
X176117381Y-62303866D02*
X176165000Y-62494342D01*
X176165000Y-62494342D02*
X176212619Y-62589580D01*
X176212619Y-62589580D02*
X176260238Y-62637200D01*
X176260238Y-62637200D02*
X176355476Y-62684819D01*
X176355476Y-62684819D02*
X176450714Y-62684819D01*
X176450714Y-62684819D02*
X176545952Y-62637200D01*
X176545952Y-62637200D02*
X176593571Y-62589580D01*
X176593571Y-62589580D02*
X176641190Y-62494342D01*
X176641190Y-62494342D02*
X176688809Y-62303866D01*
X176688809Y-62303866D02*
X176688809Y-62065771D01*
X176688809Y-62065771D02*
X176641190Y-61875295D01*
X176641190Y-61875295D02*
X176593571Y-61780057D01*
X176593571Y-61780057D02*
X176545952Y-61732438D01*
X176545952Y-61732438D02*
X176450714Y-61684819D01*
X92043571Y-140515180D02*
X91567381Y-140515180D01*
X91567381Y-140515180D02*
X91567381Y-141515180D01*
X92567381Y-141515180D02*
X92757857Y-141515180D01*
X92757857Y-141515180D02*
X92853095Y-141467561D01*
X92853095Y-141467561D02*
X92948333Y-141372323D01*
X92948333Y-141372323D02*
X92995952Y-141181847D01*
X92995952Y-141181847D02*
X92995952Y-140848514D01*
X92995952Y-140848514D02*
X92948333Y-140658038D01*
X92948333Y-140658038D02*
X92853095Y-140562800D01*
X92853095Y-140562800D02*
X92757857Y-140515180D01*
X92757857Y-140515180D02*
X92567381Y-140515180D01*
X92567381Y-140515180D02*
X92472143Y-140562800D01*
X92472143Y-140562800D02*
X92376905Y-140658038D01*
X92376905Y-140658038D02*
X92329286Y-140848514D01*
X92329286Y-140848514D02*
X92329286Y-141181847D01*
X92329286Y-141181847D02*
X92376905Y-141372323D01*
X92376905Y-141372323D02*
X92472143Y-141467561D01*
X92472143Y-141467561D02*
X92567381Y-141515180D01*
X93615000Y-141515180D02*
X93805476Y-141515180D01*
X93805476Y-141515180D02*
X93900714Y-141467561D01*
X93900714Y-141467561D02*
X93995952Y-141372323D01*
X93995952Y-141372323D02*
X94043571Y-141181847D01*
X94043571Y-141181847D02*
X94043571Y-140848514D01*
X94043571Y-140848514D02*
X93995952Y-140658038D01*
X93995952Y-140658038D02*
X93900714Y-140562800D01*
X93900714Y-140562800D02*
X93805476Y-140515180D01*
X93805476Y-140515180D02*
X93615000Y-140515180D01*
X93615000Y-140515180D02*
X93519762Y-140562800D01*
X93519762Y-140562800D02*
X93424524Y-140658038D01*
X93424524Y-140658038D02*
X93376905Y-140848514D01*
X93376905Y-140848514D02*
X93376905Y-141181847D01*
X93376905Y-141181847D02*
X93424524Y-141372323D01*
X93424524Y-141372323D02*
X93519762Y-141467561D01*
X93519762Y-141467561D02*
X93615000Y-141515180D01*
X94472143Y-140515180D02*
X94472143Y-141515180D01*
X94472143Y-141515180D02*
X94853095Y-141515180D01*
X94853095Y-141515180D02*
X94948333Y-141467561D01*
X94948333Y-141467561D02*
X94995952Y-141419942D01*
X94995952Y-141419942D02*
X95043571Y-141324704D01*
X95043571Y-141324704D02*
X95043571Y-141181847D01*
X95043571Y-141181847D02*
X94995952Y-141086609D01*
X94995952Y-141086609D02*
X94948333Y-141038990D01*
X94948333Y-141038990D02*
X94853095Y-140991371D01*
X94853095Y-140991371D02*
X94472143Y-140991371D01*
X96757857Y-140515180D02*
X96186429Y-140515180D01*
X96472143Y-140515180D02*
X96472143Y-141515180D01*
X96472143Y-141515180D02*
X96376905Y-141372323D01*
X96376905Y-141372323D02*
X96281667Y-141277085D01*
X96281667Y-141277085D02*
X96186429Y-141229466D01*
X97376905Y-141515180D02*
X97472143Y-141515180D01*
X97472143Y-141515180D02*
X97567381Y-141467561D01*
X97567381Y-141467561D02*
X97615000Y-141419942D01*
X97615000Y-141419942D02*
X97662619Y-141324704D01*
X97662619Y-141324704D02*
X97710238Y-141134228D01*
X97710238Y-141134228D02*
X97710238Y-140896133D01*
X97710238Y-140896133D02*
X97662619Y-140705657D01*
X97662619Y-140705657D02*
X97615000Y-140610419D01*
X97615000Y-140610419D02*
X97567381Y-140562800D01*
X97567381Y-140562800D02*
X97472143Y-140515180D01*
X97472143Y-140515180D02*
X97376905Y-140515180D01*
X97376905Y-140515180D02*
X97281667Y-140562800D01*
X97281667Y-140562800D02*
X97234048Y-140610419D01*
X97234048Y-140610419D02*
X97186429Y-140705657D01*
X97186429Y-140705657D02*
X97138810Y-140896133D01*
X97138810Y-140896133D02*
X97138810Y-141134228D01*
X97138810Y-141134228D02*
X97186429Y-141324704D01*
X97186429Y-141324704D02*
X97234048Y-141419942D01*
X97234048Y-141419942D02*
X97281667Y-141467561D01*
X97281667Y-141467561D02*
X97376905Y-141515180D01*
X191579761Y-140515180D02*
X191103571Y-140515180D01*
X191103571Y-140515180D02*
X191103571Y-141515180D01*
X192103571Y-141515180D02*
X192294047Y-141515180D01*
X192294047Y-141515180D02*
X192389285Y-141467561D01*
X192389285Y-141467561D02*
X192484523Y-141372323D01*
X192484523Y-141372323D02*
X192532142Y-141181847D01*
X192532142Y-141181847D02*
X192532142Y-140848514D01*
X192532142Y-140848514D02*
X192484523Y-140658038D01*
X192484523Y-140658038D02*
X192389285Y-140562800D01*
X192389285Y-140562800D02*
X192294047Y-140515180D01*
X192294047Y-140515180D02*
X192103571Y-140515180D01*
X192103571Y-140515180D02*
X192008333Y-140562800D01*
X192008333Y-140562800D02*
X191913095Y-140658038D01*
X191913095Y-140658038D02*
X191865476Y-140848514D01*
X191865476Y-140848514D02*
X191865476Y-141181847D01*
X191865476Y-141181847D02*
X191913095Y-141372323D01*
X191913095Y-141372323D02*
X192008333Y-141467561D01*
X192008333Y-141467561D02*
X192103571Y-141515180D01*
X193151190Y-141515180D02*
X193341666Y-141515180D01*
X193341666Y-141515180D02*
X193436904Y-141467561D01*
X193436904Y-141467561D02*
X193532142Y-141372323D01*
X193532142Y-141372323D02*
X193579761Y-141181847D01*
X193579761Y-141181847D02*
X193579761Y-140848514D01*
X193579761Y-140848514D02*
X193532142Y-140658038D01*
X193532142Y-140658038D02*
X193436904Y-140562800D01*
X193436904Y-140562800D02*
X193341666Y-140515180D01*
X193341666Y-140515180D02*
X193151190Y-140515180D01*
X193151190Y-140515180D02*
X193055952Y-140562800D01*
X193055952Y-140562800D02*
X192960714Y-140658038D01*
X192960714Y-140658038D02*
X192913095Y-140848514D01*
X192913095Y-140848514D02*
X192913095Y-141181847D01*
X192913095Y-141181847D02*
X192960714Y-141372323D01*
X192960714Y-141372323D02*
X193055952Y-141467561D01*
X193055952Y-141467561D02*
X193151190Y-141515180D01*
X194008333Y-140515180D02*
X194008333Y-141515180D01*
X194008333Y-141515180D02*
X194389285Y-141515180D01*
X194389285Y-141515180D02*
X194484523Y-141467561D01*
X194484523Y-141467561D02*
X194532142Y-141419942D01*
X194532142Y-141419942D02*
X194579761Y-141324704D01*
X194579761Y-141324704D02*
X194579761Y-141181847D01*
X194579761Y-141181847D02*
X194532142Y-141086609D01*
X194532142Y-141086609D02*
X194484523Y-141038990D01*
X194484523Y-141038990D02*
X194389285Y-140991371D01*
X194389285Y-140991371D02*
X194008333Y-140991371D01*
X196198809Y-141181847D02*
X196198809Y-140515180D01*
X195960714Y-141562800D02*
X195722619Y-140848514D01*
X195722619Y-140848514D02*
X196341666Y-140848514D01*
X142049761Y-140515180D02*
X141573571Y-140515180D01*
X141573571Y-140515180D02*
X141573571Y-141515180D01*
X142573571Y-141515180D02*
X142764047Y-141515180D01*
X142764047Y-141515180D02*
X142859285Y-141467561D01*
X142859285Y-141467561D02*
X142954523Y-141372323D01*
X142954523Y-141372323D02*
X143002142Y-141181847D01*
X143002142Y-141181847D02*
X143002142Y-140848514D01*
X143002142Y-140848514D02*
X142954523Y-140658038D01*
X142954523Y-140658038D02*
X142859285Y-140562800D01*
X142859285Y-140562800D02*
X142764047Y-140515180D01*
X142764047Y-140515180D02*
X142573571Y-140515180D01*
X142573571Y-140515180D02*
X142478333Y-140562800D01*
X142478333Y-140562800D02*
X142383095Y-140658038D01*
X142383095Y-140658038D02*
X142335476Y-140848514D01*
X142335476Y-140848514D02*
X142335476Y-141181847D01*
X142335476Y-141181847D02*
X142383095Y-141372323D01*
X142383095Y-141372323D02*
X142478333Y-141467561D01*
X142478333Y-141467561D02*
X142573571Y-141515180D01*
X143621190Y-141515180D02*
X143811666Y-141515180D01*
X143811666Y-141515180D02*
X143906904Y-141467561D01*
X143906904Y-141467561D02*
X144002142Y-141372323D01*
X144002142Y-141372323D02*
X144049761Y-141181847D01*
X144049761Y-141181847D02*
X144049761Y-140848514D01*
X144049761Y-140848514D02*
X144002142Y-140658038D01*
X144002142Y-140658038D02*
X143906904Y-140562800D01*
X143906904Y-140562800D02*
X143811666Y-140515180D01*
X143811666Y-140515180D02*
X143621190Y-140515180D01*
X143621190Y-140515180D02*
X143525952Y-140562800D01*
X143525952Y-140562800D02*
X143430714Y-140658038D01*
X143430714Y-140658038D02*
X143383095Y-140848514D01*
X143383095Y-140848514D02*
X143383095Y-141181847D01*
X143383095Y-141181847D02*
X143430714Y-141372323D01*
X143430714Y-141372323D02*
X143525952Y-141467561D01*
X143525952Y-141467561D02*
X143621190Y-141515180D01*
X144478333Y-140515180D02*
X144478333Y-141515180D01*
X144478333Y-141515180D02*
X144859285Y-141515180D01*
X144859285Y-141515180D02*
X144954523Y-141467561D01*
X144954523Y-141467561D02*
X145002142Y-141419942D01*
X145002142Y-141419942D02*
X145049761Y-141324704D01*
X145049761Y-141324704D02*
X145049761Y-141181847D01*
X145049761Y-141181847D02*
X145002142Y-141086609D01*
X145002142Y-141086609D02*
X144954523Y-141038990D01*
X144954523Y-141038990D02*
X144859285Y-140991371D01*
X144859285Y-140991371D02*
X144478333Y-140991371D01*
X146145000Y-141515180D02*
X146811666Y-141515180D01*
X146811666Y-141515180D02*
X146383095Y-140515180D01*
X195770238Y-62684819D02*
X196246428Y-62684819D01*
X196246428Y-62684819D02*
X196246428Y-61684819D01*
X195246428Y-61684819D02*
X195055952Y-61684819D01*
X195055952Y-61684819D02*
X194960714Y-61732438D01*
X194960714Y-61732438D02*
X194865476Y-61827676D01*
X194865476Y-61827676D02*
X194817857Y-62018152D01*
X194817857Y-62018152D02*
X194817857Y-62351485D01*
X194817857Y-62351485D02*
X194865476Y-62541961D01*
X194865476Y-62541961D02*
X194960714Y-62637200D01*
X194960714Y-62637200D02*
X195055952Y-62684819D01*
X195055952Y-62684819D02*
X195246428Y-62684819D01*
X195246428Y-62684819D02*
X195341666Y-62637200D01*
X195341666Y-62637200D02*
X195436904Y-62541961D01*
X195436904Y-62541961D02*
X195484523Y-62351485D01*
X195484523Y-62351485D02*
X195484523Y-62018152D01*
X195484523Y-62018152D02*
X195436904Y-61827676D01*
X195436904Y-61827676D02*
X195341666Y-61732438D01*
X195341666Y-61732438D02*
X195246428Y-61684819D01*
X194198809Y-61684819D02*
X194008333Y-61684819D01*
X194008333Y-61684819D02*
X193913095Y-61732438D01*
X193913095Y-61732438D02*
X193817857Y-61827676D01*
X193817857Y-61827676D02*
X193770238Y-62018152D01*
X193770238Y-62018152D02*
X193770238Y-62351485D01*
X193770238Y-62351485D02*
X193817857Y-62541961D01*
X193817857Y-62541961D02*
X193913095Y-62637200D01*
X193913095Y-62637200D02*
X194008333Y-62684819D01*
X194008333Y-62684819D02*
X194198809Y-62684819D01*
X194198809Y-62684819D02*
X194294047Y-62637200D01*
X194294047Y-62637200D02*
X194389285Y-62541961D01*
X194389285Y-62541961D02*
X194436904Y-62351485D01*
X194436904Y-62351485D02*
X194436904Y-62018152D01*
X194436904Y-62018152D02*
X194389285Y-61827676D01*
X194389285Y-61827676D02*
X194294047Y-61732438D01*
X194294047Y-61732438D02*
X194198809Y-61684819D01*
X193341666Y-62684819D02*
X193341666Y-61684819D01*
X193341666Y-61684819D02*
X192960714Y-61684819D01*
X192960714Y-61684819D02*
X192865476Y-61732438D01*
X192865476Y-61732438D02*
X192817857Y-61780057D01*
X192817857Y-61780057D02*
X192770238Y-61875295D01*
X192770238Y-61875295D02*
X192770238Y-62018152D01*
X192770238Y-62018152D02*
X192817857Y-62113390D01*
X192817857Y-62113390D02*
X192865476Y-62161009D01*
X192865476Y-62161009D02*
X192960714Y-62208628D01*
X192960714Y-62208628D02*
X193341666Y-62208628D01*
X191055952Y-62684819D02*
X191627380Y-62684819D01*
X191341666Y-62684819D02*
X191341666Y-61684819D01*
X191341666Y-61684819D02*
X191436904Y-61827676D01*
X191436904Y-61827676D02*
X191532142Y-61922914D01*
X191532142Y-61922914D02*
X191627380Y-61970533D01*
X192508094Y-106714819D02*
X192508094Y-105714819D01*
X192508094Y-105714819D02*
X192269999Y-105714819D01*
X192269999Y-105714819D02*
X192127142Y-105762438D01*
X192127142Y-105762438D02*
X192031904Y-105857676D01*
X192031904Y-105857676D02*
X191984285Y-105952914D01*
X191984285Y-105952914D02*
X191936666Y-106143390D01*
X191936666Y-106143390D02*
X191936666Y-106286247D01*
X191936666Y-106286247D02*
X191984285Y-106476723D01*
X191984285Y-106476723D02*
X192031904Y-106571961D01*
X192031904Y-106571961D02*
X192127142Y-106667200D01*
X192127142Y-106667200D02*
X192269999Y-106714819D01*
X192269999Y-106714819D02*
X192508094Y-106714819D01*
X191079523Y-106048152D02*
X191079523Y-106714819D01*
X191317618Y-105667200D02*
X191555713Y-106381485D01*
X191555713Y-106381485D02*
X190936666Y-106381485D01*
X126468094Y-106714819D02*
X126468094Y-105714819D01*
X126468094Y-105714819D02*
X126229999Y-105714819D01*
X126229999Y-105714819D02*
X126087142Y-105762438D01*
X126087142Y-105762438D02*
X125991904Y-105857676D01*
X125991904Y-105857676D02*
X125944285Y-105952914D01*
X125944285Y-105952914D02*
X125896666Y-106143390D01*
X125896666Y-106143390D02*
X125896666Y-106286247D01*
X125896666Y-106286247D02*
X125944285Y-106476723D01*
X125944285Y-106476723D02*
X125991904Y-106571961D01*
X125991904Y-106571961D02*
X126087142Y-106667200D01*
X126087142Y-106667200D02*
X126229999Y-106714819D01*
X126229999Y-106714819D02*
X126468094Y-106714819D01*
X125325237Y-106143390D02*
X125420475Y-106095771D01*
X125420475Y-106095771D02*
X125468094Y-106048152D01*
X125468094Y-106048152D02*
X125515713Y-105952914D01*
X125515713Y-105952914D02*
X125515713Y-105905295D01*
X125515713Y-105905295D02*
X125468094Y-105810057D01*
X125468094Y-105810057D02*
X125420475Y-105762438D01*
X125420475Y-105762438D02*
X125325237Y-105714819D01*
X125325237Y-105714819D02*
X125134761Y-105714819D01*
X125134761Y-105714819D02*
X125039523Y-105762438D01*
X125039523Y-105762438D02*
X124991904Y-105810057D01*
X124991904Y-105810057D02*
X124944285Y-105905295D01*
X124944285Y-105905295D02*
X124944285Y-105952914D01*
X124944285Y-105952914D02*
X124991904Y-106048152D01*
X124991904Y-106048152D02*
X125039523Y-106095771D01*
X125039523Y-106095771D02*
X125134761Y-106143390D01*
X125134761Y-106143390D02*
X125325237Y-106143390D01*
X125325237Y-106143390D02*
X125420475Y-106191009D01*
X125420475Y-106191009D02*
X125468094Y-106238628D01*
X125468094Y-106238628D02*
X125515713Y-106333866D01*
X125515713Y-106333866D02*
X125515713Y-106524342D01*
X125515713Y-106524342D02*
X125468094Y-106619580D01*
X125468094Y-106619580D02*
X125420475Y-106667200D01*
X125420475Y-106667200D02*
X125325237Y-106714819D01*
X125325237Y-106714819D02*
X125134761Y-106714819D01*
X125134761Y-106714819D02*
X125039523Y-106667200D01*
X125039523Y-106667200D02*
X124991904Y-106619580D01*
X124991904Y-106619580D02*
X124944285Y-106524342D01*
X124944285Y-106524342D02*
X124944285Y-106333866D01*
X124944285Y-106333866D02*
X124991904Y-106238628D01*
X124991904Y-106238628D02*
X125039523Y-106191009D01*
X125039523Y-106191009D02*
X125134761Y-106143390D01*
X93924285Y-106714819D02*
X93924285Y-105714819D01*
X93924285Y-105714819D02*
X93686190Y-105714819D01*
X93686190Y-105714819D02*
X93543333Y-105762438D01*
X93543333Y-105762438D02*
X93448095Y-105857676D01*
X93448095Y-105857676D02*
X93400476Y-105952914D01*
X93400476Y-105952914D02*
X93352857Y-106143390D01*
X93352857Y-106143390D02*
X93352857Y-106286247D01*
X93352857Y-106286247D02*
X93400476Y-106476723D01*
X93400476Y-106476723D02*
X93448095Y-106571961D01*
X93448095Y-106571961D02*
X93543333Y-106667200D01*
X93543333Y-106667200D02*
X93686190Y-106714819D01*
X93686190Y-106714819D02*
X93924285Y-106714819D01*
X92400476Y-106714819D02*
X92971904Y-106714819D01*
X92686190Y-106714819D02*
X92686190Y-105714819D01*
X92686190Y-105714819D02*
X92781428Y-105857676D01*
X92781428Y-105857676D02*
X92876666Y-105952914D01*
X92876666Y-105952914D02*
X92971904Y-106000533D01*
X91781428Y-105714819D02*
X91686190Y-105714819D01*
X91686190Y-105714819D02*
X91590952Y-105762438D01*
X91590952Y-105762438D02*
X91543333Y-105810057D01*
X91543333Y-105810057D02*
X91495714Y-105905295D01*
X91495714Y-105905295D02*
X91448095Y-106095771D01*
X91448095Y-106095771D02*
X91448095Y-106333866D01*
X91448095Y-106333866D02*
X91495714Y-106524342D01*
X91495714Y-106524342D02*
X91543333Y-106619580D01*
X91543333Y-106619580D02*
X91590952Y-106667200D01*
X91590952Y-106667200D02*
X91686190Y-106714819D01*
X91686190Y-106714819D02*
X91781428Y-106714819D01*
X91781428Y-106714819D02*
X91876666Y-106667200D01*
X91876666Y-106667200D02*
X91924285Y-106619580D01*
X91924285Y-106619580D02*
X91971904Y-106524342D01*
X91971904Y-106524342D02*
X92019523Y-106333866D01*
X92019523Y-106333866D02*
X92019523Y-106095771D01*
X92019523Y-106095771D02*
X91971904Y-105905295D01*
X91971904Y-105905295D02*
X91924285Y-105810057D01*
X91924285Y-105810057D02*
X91876666Y-105762438D01*
X91876666Y-105762438D02*
X91781428Y-105714819D01*
X159488094Y-106714819D02*
X159488094Y-105714819D01*
X159488094Y-105714819D02*
X159249999Y-105714819D01*
X159249999Y-105714819D02*
X159107142Y-105762438D01*
X159107142Y-105762438D02*
X159011904Y-105857676D01*
X159011904Y-105857676D02*
X158964285Y-105952914D01*
X158964285Y-105952914D02*
X158916666Y-106143390D01*
X158916666Y-106143390D02*
X158916666Y-106286247D01*
X158916666Y-106286247D02*
X158964285Y-106476723D01*
X158964285Y-106476723D02*
X159011904Y-106571961D01*
X159011904Y-106571961D02*
X159107142Y-106667200D01*
X159107142Y-106667200D02*
X159249999Y-106714819D01*
X159249999Y-106714819D02*
X159488094Y-106714819D01*
X158059523Y-105714819D02*
X158249999Y-105714819D01*
X158249999Y-105714819D02*
X158345237Y-105762438D01*
X158345237Y-105762438D02*
X158392856Y-105810057D01*
X158392856Y-105810057D02*
X158488094Y-105952914D01*
X158488094Y-105952914D02*
X158535713Y-106143390D01*
X158535713Y-106143390D02*
X158535713Y-106524342D01*
X158535713Y-106524342D02*
X158488094Y-106619580D01*
X158488094Y-106619580D02*
X158440475Y-106667200D01*
X158440475Y-106667200D02*
X158345237Y-106714819D01*
X158345237Y-106714819D02*
X158154761Y-106714819D01*
X158154761Y-106714819D02*
X158059523Y-106667200D01*
X158059523Y-106667200D02*
X158011904Y-106619580D01*
X158011904Y-106619580D02*
X157964285Y-106524342D01*
X157964285Y-106524342D02*
X157964285Y-106286247D01*
X157964285Y-106286247D02*
X158011904Y-106191009D01*
X158011904Y-106191009D02*
X158059523Y-106143390D01*
X158059523Y-106143390D02*
X158154761Y-106095771D01*
X158154761Y-106095771D02*
X158345237Y-106095771D01*
X158345237Y-106095771D02*
X158440475Y-106143390D01*
X158440475Y-106143390D02*
X158488094Y-106191009D01*
X158488094Y-106191009D02*
X158535713Y-106286247D01*
X209018094Y-106714819D02*
X209018094Y-105714819D01*
X209018094Y-105714819D02*
X208779999Y-105714819D01*
X208779999Y-105714819D02*
X208637142Y-105762438D01*
X208637142Y-105762438D02*
X208541904Y-105857676D01*
X208541904Y-105857676D02*
X208494285Y-105952914D01*
X208494285Y-105952914D02*
X208446666Y-106143390D01*
X208446666Y-106143390D02*
X208446666Y-106286247D01*
X208446666Y-106286247D02*
X208494285Y-106476723D01*
X208494285Y-106476723D02*
X208541904Y-106571961D01*
X208541904Y-106571961D02*
X208637142Y-106667200D01*
X208637142Y-106667200D02*
X208779999Y-106714819D01*
X208779999Y-106714819D02*
X209018094Y-106714819D01*
X208113332Y-105714819D02*
X207494285Y-105714819D01*
X207494285Y-105714819D02*
X207827618Y-106095771D01*
X207827618Y-106095771D02*
X207684761Y-106095771D01*
X207684761Y-106095771D02*
X207589523Y-106143390D01*
X207589523Y-106143390D02*
X207541904Y-106191009D01*
X207541904Y-106191009D02*
X207494285Y-106286247D01*
X207494285Y-106286247D02*
X207494285Y-106524342D01*
X207494285Y-106524342D02*
X207541904Y-106619580D01*
X207541904Y-106619580D02*
X207589523Y-106667200D01*
X207589523Y-106667200D02*
X207684761Y-106714819D01*
X207684761Y-106714819D02*
X207970475Y-106714819D01*
X207970475Y-106714819D02*
X208065713Y-106667200D01*
X208065713Y-106667200D02*
X208113332Y-106619580D01*
X142978094Y-106714819D02*
X142978094Y-105714819D01*
X142978094Y-105714819D02*
X142739999Y-105714819D01*
X142739999Y-105714819D02*
X142597142Y-105762438D01*
X142597142Y-105762438D02*
X142501904Y-105857676D01*
X142501904Y-105857676D02*
X142454285Y-105952914D01*
X142454285Y-105952914D02*
X142406666Y-106143390D01*
X142406666Y-106143390D02*
X142406666Y-106286247D01*
X142406666Y-106286247D02*
X142454285Y-106476723D01*
X142454285Y-106476723D02*
X142501904Y-106571961D01*
X142501904Y-106571961D02*
X142597142Y-106667200D01*
X142597142Y-106667200D02*
X142739999Y-106714819D01*
X142739999Y-106714819D02*
X142978094Y-106714819D01*
X142073332Y-105714819D02*
X141406666Y-105714819D01*
X141406666Y-105714819D02*
X141835237Y-106714819D01*
X196318094Y-97394819D02*
X196318094Y-96394819D01*
X196318094Y-96394819D02*
X196079999Y-96394819D01*
X196079999Y-96394819D02*
X195937142Y-96442438D01*
X195937142Y-96442438D02*
X195841904Y-96537676D01*
X195841904Y-96537676D02*
X195794285Y-96632914D01*
X195794285Y-96632914D02*
X195746666Y-96823390D01*
X195746666Y-96823390D02*
X195746666Y-96966247D01*
X195746666Y-96966247D02*
X195794285Y-97156723D01*
X195794285Y-97156723D02*
X195841904Y-97251961D01*
X195841904Y-97251961D02*
X195937142Y-97347200D01*
X195937142Y-97347200D02*
X196079999Y-97394819D01*
X196079999Y-97394819D02*
X196318094Y-97394819D01*
X194794285Y-97394819D02*
X195365713Y-97394819D01*
X195079999Y-97394819D02*
X195079999Y-96394819D01*
X195079999Y-96394819D02*
X195175237Y-96537676D01*
X195175237Y-96537676D02*
X195270475Y-96632914D01*
X195270475Y-96632914D02*
X195365713Y-96680533D01*
X212828094Y-97394819D02*
X212828094Y-96394819D01*
X212828094Y-96394819D02*
X212589999Y-96394819D01*
X212589999Y-96394819D02*
X212447142Y-96442438D01*
X212447142Y-96442438D02*
X212351904Y-96537676D01*
X212351904Y-96537676D02*
X212304285Y-96632914D01*
X212304285Y-96632914D02*
X212256666Y-96823390D01*
X212256666Y-96823390D02*
X212256666Y-96966247D01*
X212256666Y-96966247D02*
X212304285Y-97156723D01*
X212304285Y-97156723D02*
X212351904Y-97251961D01*
X212351904Y-97251961D02*
X212447142Y-97347200D01*
X212447142Y-97347200D02*
X212589999Y-97394819D01*
X212589999Y-97394819D02*
X212828094Y-97394819D01*
X211875713Y-96490057D02*
X211828094Y-96442438D01*
X211828094Y-96442438D02*
X211732856Y-96394819D01*
X211732856Y-96394819D02*
X211494761Y-96394819D01*
X211494761Y-96394819D02*
X211399523Y-96442438D01*
X211399523Y-96442438D02*
X211351904Y-96490057D01*
X211351904Y-96490057D02*
X211304285Y-96585295D01*
X211304285Y-96585295D02*
X211304285Y-96680533D01*
X211304285Y-96680533D02*
X211351904Y-96823390D01*
X211351904Y-96823390D02*
X211923332Y-97394819D01*
X211923332Y-97394819D02*
X211304285Y-97394819D01*
X109958094Y-106714819D02*
X109958094Y-105714819D01*
X109958094Y-105714819D02*
X109719999Y-105714819D01*
X109719999Y-105714819D02*
X109577142Y-105762438D01*
X109577142Y-105762438D02*
X109481904Y-105857676D01*
X109481904Y-105857676D02*
X109434285Y-105952914D01*
X109434285Y-105952914D02*
X109386666Y-106143390D01*
X109386666Y-106143390D02*
X109386666Y-106286247D01*
X109386666Y-106286247D02*
X109434285Y-106476723D01*
X109434285Y-106476723D02*
X109481904Y-106571961D01*
X109481904Y-106571961D02*
X109577142Y-106667200D01*
X109577142Y-106667200D02*
X109719999Y-106714819D01*
X109719999Y-106714819D02*
X109958094Y-106714819D01*
X108910475Y-106714819D02*
X108719999Y-106714819D01*
X108719999Y-106714819D02*
X108624761Y-106667200D01*
X108624761Y-106667200D02*
X108577142Y-106619580D01*
X108577142Y-106619580D02*
X108481904Y-106476723D01*
X108481904Y-106476723D02*
X108434285Y-106286247D01*
X108434285Y-106286247D02*
X108434285Y-105905295D01*
X108434285Y-105905295D02*
X108481904Y-105810057D01*
X108481904Y-105810057D02*
X108529523Y-105762438D01*
X108529523Y-105762438D02*
X108624761Y-105714819D01*
X108624761Y-105714819D02*
X108815237Y-105714819D01*
X108815237Y-105714819D02*
X108910475Y-105762438D01*
X108910475Y-105762438D02*
X108958094Y-105810057D01*
X108958094Y-105810057D02*
X109005713Y-105905295D01*
X109005713Y-105905295D02*
X109005713Y-106143390D01*
X109005713Y-106143390D02*
X108958094Y-106238628D01*
X108958094Y-106238628D02*
X108910475Y-106286247D01*
X108910475Y-106286247D02*
X108815237Y-106333866D01*
X108815237Y-106333866D02*
X108624761Y-106333866D01*
X108624761Y-106333866D02*
X108529523Y-106286247D01*
X108529523Y-106286247D02*
X108481904Y-106238628D01*
X108481904Y-106238628D02*
X108434285Y-106143390D01*
X175998094Y-106714819D02*
X175998094Y-105714819D01*
X175998094Y-105714819D02*
X175759999Y-105714819D01*
X175759999Y-105714819D02*
X175617142Y-105762438D01*
X175617142Y-105762438D02*
X175521904Y-105857676D01*
X175521904Y-105857676D02*
X175474285Y-105952914D01*
X175474285Y-105952914D02*
X175426666Y-106143390D01*
X175426666Y-106143390D02*
X175426666Y-106286247D01*
X175426666Y-106286247D02*
X175474285Y-106476723D01*
X175474285Y-106476723D02*
X175521904Y-106571961D01*
X175521904Y-106571961D02*
X175617142Y-106667200D01*
X175617142Y-106667200D02*
X175759999Y-106714819D01*
X175759999Y-106714819D02*
X175998094Y-106714819D01*
X174521904Y-105714819D02*
X174998094Y-105714819D01*
X174998094Y-105714819D02*
X175045713Y-106191009D01*
X175045713Y-106191009D02*
X174998094Y-106143390D01*
X174998094Y-106143390D02*
X174902856Y-106095771D01*
X174902856Y-106095771D02*
X174664761Y-106095771D01*
X174664761Y-106095771D02*
X174569523Y-106143390D01*
X174569523Y-106143390D02*
X174521904Y-106191009D01*
X174521904Y-106191009D02*
X174474285Y-106286247D01*
X174474285Y-106286247D02*
X174474285Y-106524342D01*
X174474285Y-106524342D02*
X174521904Y-106619580D01*
X174521904Y-106619580D02*
X174569523Y-106667200D01*
X174569523Y-106667200D02*
X174664761Y-106714819D01*
X174664761Y-106714819D02*
X174902856Y-106714819D01*
X174902856Y-106714819D02*
X174998094Y-106667200D01*
X174998094Y-106667200D02*
X175045713Y-106619580D01*
D11*
%TO.C,D4*%
X193330000Y-107984000D02*
X193330000Y-108140000D01*
X193330000Y-110300000D02*
X193330000Y-110456000D01*
X190098563Y-108140000D02*
G75*
G02*
X193330000Y-107984484I1671437J-1080000D01*
G01*
X190729039Y-108140000D02*
G75*
G02*
X192810961Y-108140000I1040961J-1080000D01*
G01*
X192810961Y-110300000D02*
G75*
G02*
X190729039Y-110300000I-1040961J1080000D01*
G01*
X193330000Y-110455516D02*
G75*
G02*
X190098563Y-110300000I-1560000J1235516D01*
G01*
%TO.C,D8*%
X127290000Y-107984000D02*
X127290000Y-108140000D01*
X127290000Y-110300000D02*
X127290000Y-110456000D01*
X124058563Y-108140000D02*
G75*
G02*
X127290000Y-107984484I1671437J-1080000D01*
G01*
X124689039Y-108140000D02*
G75*
G02*
X126770961Y-108140000I1040961J-1080000D01*
G01*
X126770961Y-110300000D02*
G75*
G02*
X124689039Y-110300000I-1040961J1080000D01*
G01*
X127290000Y-110455516D02*
G75*
G02*
X124058563Y-110300000I-1560000J1235516D01*
G01*
%TO.C,D10*%
X94270000Y-107984000D02*
X94270000Y-108140000D01*
X94270000Y-110300000D02*
X94270000Y-110456000D01*
X91038563Y-108140000D02*
G75*
G02*
X94270000Y-107984484I1671437J-1080000D01*
G01*
X91669039Y-108140000D02*
G75*
G02*
X93750961Y-108140000I1040961J-1080000D01*
G01*
X93750961Y-110300000D02*
G75*
G02*
X91669039Y-110300000I-1040961J1080000D01*
G01*
X94270000Y-110455516D02*
G75*
G02*
X91038563Y-110300000I-1560000J1235516D01*
G01*
%TO.C,D6*%
X160310000Y-107984000D02*
X160310000Y-108140000D01*
X160310000Y-110300000D02*
X160310000Y-110456000D01*
X157078563Y-108140000D02*
G75*
G02*
X160310000Y-107984484I1671437J-1080000D01*
G01*
X157709039Y-108140000D02*
G75*
G02*
X159790961Y-108140000I1040961J-1080000D01*
G01*
X159790961Y-110300000D02*
G75*
G02*
X157709039Y-110300000I-1040961J1080000D01*
G01*
X160310000Y-110455516D02*
G75*
G02*
X157078563Y-110300000I-1560000J1235516D01*
G01*
%TO.C,D3*%
X209840000Y-107984000D02*
X209840000Y-108140000D01*
X209840000Y-110300000D02*
X209840000Y-110456000D01*
X206608563Y-108140000D02*
G75*
G02*
X209840000Y-107984484I1671437J-1080000D01*
G01*
X207239039Y-108140000D02*
G75*
G02*
X209320961Y-108140000I1040961J-1080000D01*
G01*
X209320961Y-110300000D02*
G75*
G02*
X207239039Y-110300000I-1040961J1080000D01*
G01*
X209840000Y-110455516D02*
G75*
G02*
X206608563Y-110300000I-1560000J1235516D01*
G01*
%TO.C,D7*%
X143800000Y-107984000D02*
X143800000Y-108140000D01*
X143800000Y-110300000D02*
X143800000Y-110456000D01*
X140568563Y-108140000D02*
G75*
G02*
X143800000Y-107984484I1671437J-1080000D01*
G01*
X141199039Y-108140000D02*
G75*
G02*
X143280961Y-108140000I1040961J-1080000D01*
G01*
X143280961Y-110300000D02*
G75*
G02*
X141199039Y-110300000I-1040961J1080000D01*
G01*
X143800000Y-110455516D02*
G75*
G02*
X140568563Y-110300000I-1560000J1235516D01*
G01*
%TO.C,D1*%
X194020000Y-92900000D02*
X194020000Y-92744000D01*
X194020000Y-95216000D02*
X194020000Y-95060000D01*
X194020000Y-92744484D02*
G75*
G02*
X197251437Y-92900000I1560000J-1235516D01*
G01*
X194539039Y-92900000D02*
G75*
G02*
X196620961Y-92900000I1040961J-1080000D01*
G01*
X196620961Y-95060000D02*
G75*
G02*
X194539039Y-95060000I-1040961J1080000D01*
G01*
X197251437Y-95060000D02*
G75*
G02*
X194020000Y-95215516I-1671437J1080000D01*
G01*
%TO.C,D2*%
X210530000Y-92900000D02*
X210530000Y-92744000D01*
X210530000Y-95216000D02*
X210530000Y-95060000D01*
X210530000Y-92744484D02*
G75*
G02*
X213761437Y-92900000I1560000J-1235516D01*
G01*
X211049039Y-92900000D02*
G75*
G02*
X213130961Y-92900000I1040961J-1080000D01*
G01*
X213130961Y-95060000D02*
G75*
G02*
X211049039Y-95060000I-1040961J1080000D01*
G01*
X213761437Y-95060000D02*
G75*
G02*
X210530000Y-95215516I-1671437J1080000D01*
G01*
%TO.C,D9*%
X110780000Y-107984000D02*
X110780000Y-108140000D01*
X110780000Y-110300000D02*
X110780000Y-110456000D01*
X107548563Y-108140000D02*
G75*
G02*
X110780000Y-107984484I1671437J-1080000D01*
G01*
X108179039Y-108140000D02*
G75*
G02*
X110260961Y-108140000I1040961J-1080000D01*
G01*
X110260961Y-110300000D02*
G75*
G02*
X108179039Y-110300000I-1040961J1080000D01*
G01*
X110780000Y-110455516D02*
G75*
G02*
X107548563Y-110300000I-1560000J1235516D01*
G01*
%TO.C,D5*%
X176820000Y-107984000D02*
X176820000Y-108140000D01*
X176820000Y-110300000D02*
X176820000Y-110456000D01*
X173588563Y-108140000D02*
G75*
G02*
X176820000Y-107984484I1671437J-1080000D01*
G01*
X174219039Y-108140000D02*
G75*
G02*
X176300961Y-108140000I1040961J-1080000D01*
G01*
X176300961Y-110300000D02*
G75*
G02*
X174219039Y-110300000I-1040961J1080000D01*
G01*
X176820000Y-110455516D02*
G75*
G02*
X173588563Y-110300000I-1560000J1235516D01*
G01*
%TD*%
M02*
